<svg width="34" height="35" viewBox="0 0 34 35" fill="none" xmlns="http://www.w3.org/2000/svg">
<path d="M9.49967 12.5H0.333008V22.5H9.49967L14.4997 17.5L9.49967 12.5ZM6.99967 19.1667H3.66634V15.8334H6.99967V19.1667ZM21.9997 10V0.833374H11.9997V10L16.9997 15L21.9997 10ZM15.333 4.16671H18.6663V7.50004H15.333V4.16671ZM11.9997 25V34.1667H21.9997V25L16.9997 20L11.9997 25ZM18.6663 30.8334H15.333V27.5H18.6663V30.8334ZM24.4997 12.5L19.4997 17.5L24.4997 22.5H33.6663V12.5H24.4997ZM30.333 19.1667H26.9997V15.8334H30.333V19.1667Z" fill="#E52D3C"/>
</svg>
