<svg width="28" height="28" viewBox="0 0 28 28" fill="none" xmlns="http://www.w3.org/2000/svg">
<path d="M2.33301 12.9302C2.33297 12.1798 2.51387 11.4406 2.86034 10.775C3.20682 10.1095 3.70867 9.5373 4.32334 9.10699L11.3233 4.20699C12.1078 3.65784 13.0421 3.36328 13.9997 3.36328C14.9572 3.36328 15.8916 3.65784 16.676 4.20699L23.676 9.10699C24.2907 9.5373 24.7925 10.1095 25.139 10.775C25.4855 11.4406 25.6664 12.1798 25.6663 12.9302V22.1667C25.6663 22.7855 25.4205 23.379 24.9829 23.8166C24.5453 24.2542 23.9518 24.5 23.333 24.5H4.66634C4.0475 24.5 3.45401 24.2542 3.01643 23.8166C2.57884 23.379 2.33301 22.7855 2.33301 22.1667V12.9302Z" stroke="white" stroke-width="2" stroke-linecap="round" stroke-linejoin="round"/>
<path d="M2.91602 11.0835L11.0838 17.5013C11.9114 18.1634 12.9396 18.5241 13.9993 18.5241C15.0591 18.5241 16.0873 18.1634 16.9148 17.5013L25.0827 11.0835" stroke="white" stroke-width="2" stroke-linejoin="round"/>
</svg>
