<svg width="32" height="35" viewBox="0 0 32 35" fill="none" xmlns="http://www.w3.org/2000/svg">
<path d="M23.3333 4.16671C22.8913 4.16671 22.4674 3.99111 22.1548 3.67855C21.8423 3.36599 21.6667 2.94207 21.6667 2.50004C21.6667 2.05801 21.8423 1.63409 22.1548 1.32153C22.4674 1.00897 22.8913 0.833374 23.3333 0.833374H30C30.442 0.833374 30.866 1.00897 31.1785 1.32153C31.4911 1.63409 31.6667 2.05801 31.6667 2.50004V9.16671C31.6667 9.60874 31.4911 10.0327 31.1785 10.3452C30.866 10.6578 30.442 10.8334 30 10.8334C29.558 10.8334 29.134 10.6578 28.8215 10.3452C28.5089 10.0327 28.3333 9.60874 28.3333 9.16671V6.52337L18.6783 16.1784C18.3658 16.4908 17.9419 16.6664 17.5 16.6664C17.0581 16.6664 16.6342 16.4908 16.3217 16.1784L11.6667 11.5234L2.845 20.345C2.53066 20.6486 2.10966 20.8166 1.67266 20.8128C1.23567 20.809 0.817649 20.6338 0.508636 20.3247C0.199622 20.0157 0.0243407 19.5977 0.0205433 19.1607C0.016746 18.7237 0.184737 18.3027 0.488333 17.9884L10.4883 7.98837C10.8009 7.67592 11.2247 7.5004 11.6667 7.5004C12.1086 7.5004 12.5325 7.67592 12.845 7.98837L17.5 12.6434L25.9767 4.16671H23.3333ZM3.33333 27.5V32.5C3.33333 32.9421 3.15774 33.366 2.84518 33.6786C2.53262 33.9911 2.10869 34.1667 1.66667 34.1667C1.22464 34.1667 0.800716 33.9911 0.488155 33.6786C0.175595 33.366 0 32.9421 0 32.5V27.5C0 27.058 0.175595 26.6341 0.488155 26.3215C0.800716 26.009 1.22464 25.8334 1.66667 25.8334C2.10869 25.8334 2.53262 26.009 2.84518 26.3215C3.15774 26.6341 3.33333 27.058 3.33333 27.5ZM11.6667 20.8334C11.6667 20.3913 11.4911 19.9674 11.1785 19.6549C10.8659 19.3423 10.442 19.1667 10 19.1667C9.55797 19.1667 9.13405 19.3423 8.82149 19.6549C8.50893 19.9674 8.33333 20.3913 8.33333 20.8334V32.5C8.33333 32.9421 8.50893 33.366 8.82149 33.6786C9.13405 33.9911 9.55797 34.1667 10 34.1667C10.442 34.1667 10.8659 33.9911 11.1785 33.6786C11.4911 33.366 11.6667 32.9421 11.6667 32.5V20.8334ZM18.3333 22.5C18.7754 22.5 19.1993 22.6756 19.5118 22.9882C19.8244 23.3008 20 23.7247 20 24.1667V32.5C20 32.9421 19.8244 33.366 19.5118 33.6786C19.1993 33.9911 18.7754 34.1667 18.3333 34.1667C17.8913 34.1667 17.4674 33.9911 17.1548 33.6786C16.8423 33.366 16.6667 32.9421 16.6667 32.5V24.1667C16.6667 23.7247 16.8423 23.3008 17.1548 22.9882C17.4674 22.6756 17.8913 22.5 18.3333 22.5ZM28.3333 15.8334C28.3333 15.3913 28.1577 14.9674 27.8452 14.6549C27.5326 14.3423 27.1087 14.1667 26.6667 14.1667C26.2246 14.1667 25.8007 14.3423 25.4882 14.6549C25.1756 14.9674 25 15.3913 25 15.8334V32.5C25 32.9421 25.1756 33.366 25.4882 33.6786C25.8007 33.9911 26.2246 34.1667 26.6667 34.1667C27.1087 34.1667 27.5326 33.9911 27.8452 33.6786C28.1577 33.366 28.3333 32.9421 28.3333 32.5V15.8334Z" fill="#E52D3C"/>
</svg>
