<svg width="33" height="34" viewBox="0 0 33 34" fill="none" xmlns="http://www.w3.org/2000/svg">
<path d="M8.83366 15.4168C9.22255 14.639 9.62533 13.889 10.042 13.1668C10.4587 12.4445 10.917 11.7223 11.417 11.0001L9.08366 10.5418L5.58366 14.0418L8.83366 15.4168ZM28.917 3.95843C26.9725 4.01398 24.8964 4.58343 22.6887 5.66676C20.4809 6.75009 18.4737 8.19454 16.667 10.0001C15.5003 11.1668 14.4587 12.4168 13.542 13.7501C12.6253 15.0834 11.9448 16.3334 11.5003 17.5001L16.2503 22.2084C17.417 21.764 18.667 21.0834 20.0003 20.1668C21.3337 19.2501 22.5837 18.2084 23.7503 17.0418C25.5559 15.2362 27.0003 13.2362 28.0837 11.0418C29.167 8.84732 29.7364 6.77787 29.792 4.83343C29.792 4.72232 29.7709 4.61121 29.7287 4.50009C29.6864 4.38898 29.6242 4.29176 29.542 4.20843C29.4598 4.12509 29.3626 4.06287 29.2503 4.02176C29.1381 3.98065 29.027 3.95954 28.917 3.95843ZM19.7503 13.9584C19.1114 13.3195 18.792 12.5351 18.792 11.6051C18.792 10.6751 19.1114 9.89009 19.7503 9.25009C20.3892 8.61009 21.1809 8.29065 22.1253 8.29176C23.0698 8.29287 23.8614 8.61232 24.5003 9.25009C25.1392 9.88787 25.4587 10.6729 25.4587 11.6051C25.4587 12.5373 25.1392 13.3218 24.5003 13.9584C23.8614 14.5951 23.0698 14.9145 22.1253 14.9168C21.1809 14.919 20.3892 14.5995 19.7503 13.9584ZM18.3337 24.8751L19.7087 28.1668L23.2087 24.6668L22.7503 22.3334C22.0281 22.8334 21.3059 23.2851 20.5837 23.6884C19.8614 24.0918 19.1114 24.4873 18.3337 24.8751ZM32.9587 2.62509C33.1809 5.68065 32.6809 8.66009 31.4587 11.5634C30.2364 14.4668 28.3059 17.2373 25.667 19.8751L26.5003 24.0001C26.6114 24.5557 26.5837 25.0973 26.417 25.6251C26.2503 26.1529 25.9725 26.6112 25.5837 27.0001L20.3337 32.2501C19.917 32.6668 19.417 32.8268 18.8337 32.7301C18.2503 32.6334 17.8475 32.3068 17.6253 31.7501L15.0837 25.7918L7.95866 18.6668L2.00033 16.1251C1.44477 15.9029 1.11144 15.5001 1.00033 14.9168C0.889215 14.3334 1.04199 13.8334 1.45866 13.4168L6.70866 8.16676C7.09755 7.77787 7.56255 7.50009 8.10366 7.33343C8.64477 7.16676 9.19366 7.13898 9.75033 7.25009L13.8753 8.08343C16.5142 5.44454 19.2853 3.51398 22.1887 2.29176C25.092 1.06954 28.0709 0.569538 31.1253 0.791761C31.3476 0.819538 31.5698 0.882316 31.792 0.980094C32.0142 1.07787 32.2087 1.20954 32.3753 1.37509C32.542 1.54065 32.6742 1.73509 32.772 1.95843C32.8698 2.18176 32.932 2.40398 32.9587 2.62509ZM3.54199 23.1251C4.51421 22.1529 5.70199 21.6601 7.10533 21.6468C8.50866 21.6334 9.69588 22.1123 10.667 23.0834C11.6381 24.0545 12.1175 25.2423 12.1053 26.6468C12.0931 28.0512 11.5998 29.2384 10.6253 30.2084C9.29199 31.5418 7.71533 32.3334 5.89533 32.5834C4.07533 32.8334 2.24921 33.0834 0.416992 33.3334L1.16699 27.8551C1.41699 26.0362 2.20866 24.4595 3.54199 23.1251ZM5.91699 25.4584C5.44477 25.9307 5.11866 26.5001 4.93866 27.1668C4.75866 27.8334 4.61255 28.514 4.50033 29.2084C5.19477 29.0973 5.87533 28.9584 6.54199 28.7918C7.20866 28.6251 7.7781 28.3057 8.25033 27.8334C8.58366 27.5001 8.76421 27.0973 8.79199 26.6251C8.81977 26.1529 8.66699 25.7501 8.33366 25.4168C8.00033 25.0834 7.59755 24.9234 7.12533 24.9368C6.6531 24.9501 6.25033 25.124 5.91699 25.4584Z" fill="#E52D3C"/>
</svg>
