<svg width="328" height="24" viewBox="0 0 328 24" fill="none" xmlns="http://www.w3.org/2000/svg">
<path d="M154.609 1.59499C154.258 1.60112 153.911 1.60718 153.563 1.61325C153.531 1.10436 153.969 0.871608 154.269 0.661003C154.609 0.422073 155.079 0.421769 155.121 1.06475C154.762 1.05918 154.591 1.23592 154.609 1.59499ZM154.609 1.59499C154.6 1.95848 154.781 2.1291 155.14 2.11098C155.137 1.93332 155.134 1.7596 155.131 1.58589C154.961 1.58885 154.783 1.59196 154.609 1.59499ZM244.1 5.00108C244.039 4.9429 243.966 4.82964 243.923 4.8383C243.801 4.86807 243.692 4.94896 243.578 5.01018C243.639 5.06837 243.695 5.12268 243.767 5.1925C243.873 5.13142 243.982 5.06632 244.1 5.00108ZM155.665 2.10182C156.446 2.04079 156.1 1.44655 156.168 1.04649C156.212 1.08521 156.291 1.08778 156.396 1.03459C156.498 0.97753 156.567 0.838107 156.628 0.726459C156.64 0.702564 156.524 0.621653 156.463 0.563467C156.362 0.644218 156.221 0.709868 156.176 0.821241C156.122 0.928803 156.124 1.01171 156.168 1.04649C155.82 1.05255 155.473 1.05862 155.125 1.06468C155.128 1.24234 155.131 1.41606 155.134 1.58582C155.494 1.56771 155.674 1.73832 155.665 2.10182ZM155.153 2.636C155.512 2.64158 155.687 2.46476 155.665 2.10182C155.491 2.10485 155.313 2.10795 155.144 2.11091C155.147 2.28463 155.15 2.45834 155.153 2.636ZM153.946 3.61674C154.044 2.91995 155.204 3.51974 155.153 2.636C154.632 2.6451 154.107 2.65426 153.585 2.66336C153.713 2.97312 153.292 3.49783 153.946 3.61674ZM148.359 3.01129C148.494 3.09581 148.636 3.26316 148.758 3.24918C148.982 3.22157 149.189 3.08368 149.405 2.99303C149.269 2.90852 149.141 2.82387 148.942 2.69703C148.77 2.79086 148.562 2.90506 148.359 3.01129ZM246.321 5.57839C246.56 5.88622 246.914 5.82474 247.189 5.52375C246.197 5.00397 247.815 4.26091 246.684 3.48291C246.465 3.84216 246.251 4.2961 245.934 4.66892C245.439 5.266 246.135 5.33678 246.321 5.57839ZM152.019 3.212C151.984 3.2521 151.982 3.33508 152.039 3.44071C152.092 3.54641 152.236 3.615 152.347 3.67623C152.371 3.68372 152.452 3.57172 152.51 3.51147C152.426 3.41027 152.364 3.26917 152.252 3.21978C152.145 3.17031 152.066 3.17564 152.023 3.21588C152.251 2.2088 153.072 2.87374 153.585 2.66731C153.579 2.31988 153.573 1.97245 153.567 1.62108C153.216 1.62721 152.868 1.63327 152.517 1.63941C152.487 2.42188 151.877 2.09684 151.48 2.17881C151.57 2.56822 151.245 3.17418 152.019 3.212ZM152.288 1.63946C152.518 1.71442 152.588 1.63422 152.517 1.38666C152.454 1.17056 152.445 0.925845 152.359 0.721994C152.289 0.561296 152.108 0.599998 152.037 0.814502C151.924 1.12846 151.953 1.436 152.288 1.63946ZM149.88 1.9066C149.442 1.48772 148.921 1.74956 148.447 1.71835C148.237 1.70621 148.015 1.84832 147.795 1.92325C148.502 1.93855 149.212 2.56988 149.88 1.9066ZM151.48 2.17486C151.43 2.03751 151.4 1.89191 151.323 1.77478C151.234 1.63812 151.076 1.67246 151.016 1.87491C150.998 1.94632 151.166 2.07766 151.247 2.17893C151.326 2.17755 151.405 2.17617 151.48 2.17486ZM137.375 2.94632C138.012 3.04972 138.159 2.87338 137.962 2.22125C137.891 1.98554 137.883 1.73293 137.871 1.48829C137.856 1.12126 137.808 0.837758 137.326 0.846166C136.825 0.854917 136.874 1.18185 136.813 1.5186C136.693 2.14072 136.151 1.85004 135.785 1.92357C135.788 2.10123 135.791 2.27494 135.794 2.44866C136.461 2.18032 136.82 2.86121 137.375 2.94632ZM140.499 2.07824C140.498 1.99927 140.497 1.92426 140.495 1.84135C140.358 1.89509 140.212 1.92528 140.095 2.00236C139.958 2.09163 139.993 2.249 140.199 2.30858C140.267 2.32715 140.394 2.15906 140.499 2.07824ZM147.23 3.29954C148.079 3.30052 147.776 2.67393 147.82 2.23875C147.326 2.24736 146.837 2.25591 146.343 2.26452C145.984 2.27079 145.695 2.20871 145.718 1.75413C145.636 1.75558 145.556 1.74511 145.478 1.76228C145.21 1.82224 145.173 2.43106 144.825 2.13306C144.648 1.98212 144.708 1.55456 144.663 1.25125C144.414 1.25559 144.166 1.29546 143.933 1.25215C143.798 1.22686 143.673 1.07502 143.568 0.958373C143.306 0.682541 142.95 0.625574 142.737 0.88204C142.382 1.31477 143.306 1.35392 143.101 1.79982C143.809 2.30876 144.513 2.82172 145.221 3.33462C145.896 3.31888 146.563 3.29539 147.23 3.29954ZM256.017 4.70618C255.413 4.94578 254.659 4.05061 254.107 4.97648C254.777 5.13066 255.417 5.15502 256.017 4.70618ZM142.072 2.33908C142.081 1.97559 141.9 1.80498 141.541 1.82309C141.532 2.18659 141.713 2.3572 142.072 2.33908ZM144.929 3.79388C145 3.81238 145.131 3.64817 145.229 3.56353C145.227 3.48852 145.226 3.40956 145.225 3.3306C145.091 3.38032 144.946 3.4105 144.825 3.48765C144.692 3.57685 144.726 3.73422 144.929 3.79388ZM141.785 3.32351C141.856 3.34201 141.984 3.17786 142.085 3.09316C142.084 3.01815 142.082 2.93919 142.081 2.86023C141.943 2.91001 141.798 2.9402 141.681 3.01728C141.544 3.10655 141.578 3.26392 141.785 3.32351ZM143.109 1.79573C142.76 1.97953 142.42 2.15924 142.072 2.33908C142.075 2.5128 142.078 2.68651 142.081 2.86023C142.936 3.00326 143.282 2.6497 143.109 1.79573ZM128.714 2.05489C128.998 2.00255 129.352 2.14249 129.447 1.72616C129.458 1.68647 129.2 1.5883 129.001 1.48515C128.844 1.57871 128.601 1.65405 128.481 1.822C128.339 2.02195 128.462 2.10667 128.714 2.05489ZM141.134 1.32075C140.782 1.28741 140.447 1.35248 140.495 1.84135C140.843 1.83529 141.19 1.82922 141.541 1.82309C141.595 1.50621 141.395 1.34384 141.134 1.32075ZM139.284 2.80637C139.362 2.7892 139.402 2.53971 139.458 2.3926C139.474 2.13958 139.414 1.91156 139.107 1.96826C139.025 1.9855 138.962 2.2354 138.937 2.38591C138.902 2.63532 138.977 2.86307 139.284 2.80637ZM147.801 0.931874C147.665 0.847361 147.534 0.762777 147.338 0.635869C147.162 0.729775 146.958 0.836008 146.755 0.950136C146.887 1.03472 147.032 1.202 147.154 1.18802C147.379 1.16041 147.586 1.02252 147.801 0.931874ZM145.306 0.722684C144.957 0.689268 144.623 0.754345 144.667 1.24328C145.018 1.23715 145.366 1.23109 145.713 1.22502C145.767 0.912092 145.571 0.749651 145.306 0.722684ZM146.134 1.56916C146.199 1.25603 145.966 1.20877 145.713 1.22897C145.716 1.40663 145.719 1.58035 145.722 1.75011C145.867 1.69229 146.116 1.65241 146.134 1.56916ZM139.653 3.85041C139.775 3.82064 139.885 3.73975 140.002 3.67846C139.942 3.62028 139.881 3.56604 139.813 3.49614C139.704 3.55729 139.59 3.62246 139.481 3.68756C139.541 3.74575 139.61 3.86302 139.653 3.85041ZM160.353 0.973439C160.299 0.8401 160.269 0.694506 160.196 0.573357C160.102 0.440708 159.945 0.47505 159.889 0.677433C159.867 0.748912 160.035 0.880251 160.116 0.977573C160.199 0.976126 160.274 0.974817 160.353 0.973439ZM191.66 1.28791C191.599 1.17839 191.533 1.065 191.468 0.951612C191.41 1.01581 191.297 1.08493 191.306 1.12822C191.335 1.25013 191.416 1.35929 191.477 1.4767C191.536 1.41645 191.594 1.35619 191.66 1.28791ZM231.521 3.65279C231.461 3.59065 231.388 3.48135 231.349 3.48993C231.223 3.51977 231.114 3.59672 231 3.66188C231.06 3.72007 231.117 3.77438 231.189 3.8442C231.295 3.77917 231.412 3.71788 231.521 3.65279ZM237.398 5.03117C237.428 5.15308 237.505 5.26232 237.566 5.37578C237.624 5.31552 237.683 5.25921 237.748 5.18698C237.687 5.08142 237.622 4.96802 237.557 4.85463C237.499 4.91094 237.386 4.98795 237.398 5.03117ZM190.084 2.19609C190.095 2.15246 189.979 2.08339 189.915 2.02922C189.854 2.14087 189.797 2.2564 189.736 2.36804C189.808 2.43392 189.868 2.49605 189.924 2.55036C189.986 2.43082 190.059 2.31896 190.084 2.19609ZM232.907 4.30787C233.193 4.18045 233.393 3.86892 233.634 3.62776C233.478 3.5278 233.349 3.38788 233.207 3.37456C232.863 3.34898 232.544 3.40193 232.568 3.88727C232.58 4.13586 232.656 4.42282 232.907 4.30787ZM178.687 2.22126C178.828 2.15956 179.08 2.11567 179.094 2.03248C179.14 1.72364 178.906 1.65664 178.662 1.70039C178.509 1.73072 178.261 1.80218 178.251 1.88529C178.205 2.19808 178.431 2.24943 178.687 2.22126ZM184.839 1.2411C184.85 1.19747 184.734 1.13235 184.674 1.07021C184.613 1.18581 184.551 1.3014 184.494 1.41298C184.562 1.47893 184.623 1.53711 184.683 1.5953C184.736 1.4759 184.813 1.36397 184.839 1.2411ZM180.94 2.08716C181.062 2.05739 181.171 1.9765 181.288 1.91521C181.228 1.85702 181.168 1.80278 181.099 1.73289C180.99 1.79404 180.876 1.85921 180.767 1.9243C180.823 1.97861 180.896 2.09581 180.94 2.08716ZM211.704 3.20885C211.821 3.09623 212.234 3.4563 212.15 2.96806C212.129 2.85786 211.912 2.69971 211.802 2.70558C211.585 2.72122 211.374 2.83943 211.162 2.91817C211.249 3.1615 211.425 3.25717 211.704 3.20885ZM197.495 1.63232C197.359 1.5478 197.227 1.46322 197.032 1.33631C196.856 1.43022 196.652 1.5404 196.449 1.65058C196.584 1.73509 196.726 1.90245 196.848 1.88847C197.072 1.8569 197.279 1.72297 197.495 1.63232ZM204.833 2.81142C204.795 2.85159 204.792 2.93457 204.849 3.03626C204.902 3.14196 205.046 3.21054 205.157 3.27178C205.173 3.2794 205.262 3.16727 205.32 3.10702C205.236 3.00581 205.17 2.86479 205.063 2.81532C204.955 2.76586 204.876 2.76724 204.833 2.81142C204.788 2.674 204.757 2.52841 204.68 2.41127C204.591 2.27461 204.434 2.30895 204.374 2.51535C204.356 2.58281 204.52 2.71422 204.604 2.81542C204.679 2.81411 204.758 2.81273 204.833 2.81142ZM221.473 2.69079C221.481 2.65117 221.365 2.5821 221.305 2.52392C221.243 2.63557 221.182 2.75116 221.125 2.86274C221.197 2.93257 221.258 2.99075 221.314 3.04506C221.371 2.92953 221.448 2.81366 221.473 2.69079ZM223.073 3.35399C223.011 3.24448 222.946 3.13109 222.881 3.02165C222.823 3.0819 222.714 3.1549 222.722 3.19424C222.752 3.31615 222.829 3.42933 222.89 3.54279C222.949 3.48254 223.003 3.4263 223.073 3.35399ZM198.45 2.05006C198.461 2.00643 198.345 1.93736 198.285 1.88312C198.224 1.99477 198.163 2.11037 198.105 2.22195C198.174 2.28789 198.234 2.35003 198.294 2.40427C198.347 2.28486 198.425 2.17294 198.45 2.05006ZM160.349 1.21836C160.401 1.50179 160.261 1.85966 160.682 1.95501C160.717 1.96228 160.816 1.70387 160.923 1.50453C160.825 1.34827 160.75 1.10473 160.582 0.989182C160.386 0.846481 160.301 0.970387 160.349 1.21836ZM237.483 4.23195C238.106 4.37905 238.779 4.48183 239.458 4.01186C238.813 3.75061 238.248 3.47219 237.656 3.30085C237.363 3.21514 236.873 3.19605 236.804 3.56453C236.772 3.75071 237.201 4.16972 237.483 4.23195ZM162.462 1.69092C162.533 1.45668 162.457 1.39087 162.209 1.46233C161.989 1.52541 161.749 1.53356 161.541 1.62012C161.384 1.69 161.423 1.87099 161.637 1.94228C161.951 2.05527 162.255 2.02628 162.462 1.69092ZM165.597 1.4032C165.738 1.3415 165.99 1.30156 166.004 1.21442C166.05 0.909529 165.82 0.842462 165.572 0.886283C165.422 0.91259 165.175 0.987997 165.161 1.07118C165.119 1.37996 165.345 1.4313 165.597 1.4032ZM162.711 1.46147C163.207 1.36593 163.533 1.49452 163.528 2.10279C163.527 2.26078 163.736 2.70734 163.949 2.26525C164.185 1.77142 163.825 1.05894 164.486 0.680127C164.382 0.583218 164.277 0.48236 164.109 0.315488C163.569 0.601362 162.981 0.864373 162.462 1.22097C162.286 1.34646 162.447 1.51347 162.711 1.46147ZM157.412 1.98048C157.626 2.03993 157.867 2.01598 158.005 2.02542C158.334 1.84986 158.343 1.69173 158.089 1.62903C157.875 1.57353 157.618 1.58196 157.406 1.64095C157.155 1.71248 157.158 1.90593 157.412 1.98048ZM220.253 3.57303C220.257 3.57691 220.399 3.37301 220.534 3.18899C219.918 3.19185 219.237 2.59556 218.974 3.63879C218.956 3.71809 218.938 3.83688 218.983 3.87955C219.562 4.48947 219.701 3.19169 220.253 3.57303ZM159.246 1.85368C159.185 1.74417 159.12 1.63078 159.055 1.51739C158.997 1.58159 158.883 1.65071 158.892 1.694C158.922 1.81591 159.003 1.92507 159.064 2.04248C159.118 1.9823 159.176 1.92204 159.246 1.85368ZM157.246 2.85617C157.186 2.79798 157.113 2.68868 157.073 2.69726C156.951 2.72704 156.838 2.80405 156.725 2.86527C156.785 2.92345 156.841 2.97776 156.913 3.04759C157.023 2.98644 157.136 2.92127 157.246 2.85617ZM176.464 0.865986C176.475 0.82235 176.359 0.753285 176.295 0.695166C176.238 0.810693 176.176 0.926289 176.115 1.03399C176.187 1.10381 176.248 1.162 176.304 1.21631C176.365 1.10071 176.438 0.988857 176.464 0.865986ZM174.141 2.20583C174.263 2.17605 174.372 2.09516 174.49 2.03388C174.429 1.97569 174.369 1.92145 174.301 1.85156C174.191 1.91271 174.078 1.97787 173.969 2.04297C174.029 2.09721 174.098 2.21448 174.141 2.20583ZM177.546 1.53427C177.484 1.42476 177.419 1.31137 177.354 1.19798C177.296 1.26218 177.183 1.33129 177.191 1.37459C177.221 1.49649 177.302 1.60566 177.363 1.72307C177.421 1.66281 177.476 1.60263 177.546 1.53427ZM173.85 0.911607C173.857 0.86804 173.741 0.798974 173.681 0.740787C173.62 0.856383 173.559 0.971979 173.501 1.07961C173.574 1.14943 173.634 1.20762 173.69 1.26193C173.747 1.1464 173.825 1.03448 173.85 0.911607ZM167.96 2.41245C168.021 2.29685 168.083 2.18125 168.14 2.06968C168.068 2.0038 168.007 1.94561 167.951 1.88736C167.894 2.00683 167.821 2.11869 167.795 2.24156C167.784 2.28519 167.9 2.35426 167.96 2.41245ZM169.498 1.8406C169.577 1.83133 169.637 1.63282 169.698 1.52512C169.515 1.22423 169.233 1.33973 169.004 1.35952C168.929 1.36478 168.795 1.61197 168.828 1.68643C168.968 1.98414 169.27 1.86434 169.498 1.8406ZM289.22 13.1822C289.183 13.2935 289.215 13.3482 289.295 13.3626C289.317 13.2793 289.332 13.2237 289.365 13.1205C289.314 13.1332 289.267 13.1577 289.22 13.1822ZM275.007 9.58376C275.011 9.58369 275.011 9.58369 275.007 9.58376C274.979 9.52502 274.97 9.48568 274.95 9.43865C274.796 9.44528 274.568 9.32287 274.529 9.55262C274.68 9.63291 274.839 9.66963 275.007 9.58376ZM292.395 12.258C292.523 12.3229 292.674 12.3795 292.849 12.4396C292.804 12.3772 292.756 12.3188 292.715 12.2564C292.589 12.2546 292.458 12.2411 292.395 12.258ZM269.765 7.4321C269.761 7.43612 269.757 7.43619 269.749 7.43632C269.757 7.47172 269.758 7.5112 269.767 7.54659C269.767 7.58607 269.766 7.50711 269.765 7.4321ZM269.031 5.45843C268.718 5.39281 268.671 5.62664 268.691 5.87904C268.869 5.87594 269.042 5.87291 269.212 5.86994C269.154 5.72483 269.114 5.47672 269.031 5.45843ZM249.368 7.26288C249.365 7.08522 249.362 6.9115 249.359 6.74174C249.181 6.74484 249.007 6.74787 248.834 6.7509C248.837 6.92462 248.84 7.09833 248.843 7.27204C249.02 7.26894 249.19 7.26598 249.368 7.26288ZM270.335 10.0326C270.509 10.0296 270.683 10.0265 270.856 10.0235C270.85 9.67212 270.844 9.32864 270.838 8.97726C270.661 8.98036 270.487 8.9834 270.317 8.98636C270.323 9.33774 270.329 9.68516 270.335 10.0326ZM134.805 3.03856C134.896 3.90582 135.779 3.60211 136.138 3.35493C136.618 3.02272 135.569 2.89885 135.798 2.44859C135.542 2.46886 135.312 2.42153 135.378 2.1084C135.4 2.02112 135.648 1.9852 135.789 1.9235C135.711 1.50624 136.308 1.35759 136.253 1.13345C136.156 0.763915 135.635 0.77696 135.388 0.911586C134.805 1.22191 133.959 1.134 133.701 1.95995C134.656 1.73001 134.724 2.23038 134.805 3.03856ZM262.408 5.46345C262.366 4.82442 261.9 4.82071 261.56 5.05964C261.26 5.27024 260.818 5.50307 260.85 6.0159C261.202 6.00977 261.549 6.0037 261.896 5.99764C261.878 5.63463 262.045 5.4619 262.408 5.46345ZM115.98 1.96517C115.962 2.03658 116.126 2.16798 116.211 2.26524C116.286 2.26393 116.365 2.26255 116.444 2.26117C116.394 2.12777 116.364 1.98217 116.287 1.86504C116.197 1.72442 116.04 1.76271 115.98 1.96517ZM73.9576 5.2025C73.6445 5.14083 73.5972 5.37071 73.6174 5.62311C73.7911 5.62008 73.9688 5.61698 74.1386 5.61401C74.0808 5.47285 74.0449 5.22467 73.9576 5.2025ZM124.807 2.63255C124.96 2.60222 125.212 2.54254 125.226 2.45541C125.296 2.1343 125.054 2.09903 124.798 2.11535C124.624 2.12233 124.454 2.12135 124.284 2.12431C124.287 2.29802 124.291 2.47174 124.294 2.64545C124.467 2.64637 124.641 2.66702 124.807 2.63255ZM257.545 6.70548C257.236 6.63979 257.185 6.87369 257.209 7.12602C257.382 7.12298 257.556 7.11995 257.73 7.11692C257.672 6.97181 257.636 6.72363 257.545 6.70548ZM251.436 5.36274C251.489 5.46844 251.628 5.53315 251.744 5.59432C251.764 5.60582 251.845 5.48987 251.903 5.42962C251.822 5.3323 251.757 5.19127 251.645 5.14188C251.538 5.09241 251.459 5.09379 251.42 5.13396C251.47 4.81715 251.273 4.65866 251.016 4.63155C250.664 4.59821 250.33 4.66328 250.378 5.15215C250.721 5.14616 251.072 5.14002 251.42 5.13396C251.377 5.17814 251.379 5.25711 251.436 5.36274ZM118.468 4.66647C118.534 4.35334 118.3 4.30213 118.051 4.32621C118.055 4.49992 118.058 4.67364 118.061 4.84735C118.202 4.7896 118.454 4.7536 118.468 4.66647ZM120.665 4.28059C120.661 4.27276 120.661 4.26881 120.657 4.26099C120.621 4.2695 120.582 4.28204 120.551 4.28259C120.507 4.28335 120.586 4.28197 120.665 4.28059ZM166.238 8.70997C166.238 8.71392 166.238 8.71392 166.238 8.70997V8.70997ZM256.164 8.84242C256.172 8.84228 256.18 8.84609 256.188 8.84596C256.18 8.84215 256.172 8.84228 256.164 8.84242ZM185.072 8.74059C185.035 8.88341 185.099 8.94548 185.245 8.90345C185.236 8.82068 185.215 8.75785 185.217 8.66698C185.15 8.68789 185.123 8.71601 185.072 8.74059ZM118.722 12.6672C118.753 12.8207 118.816 13.0723 118.9 13.0906C119.224 13.156 119.256 12.9145 119.243 12.6581C119.233 12.4884 119.238 12.3185 119.235 12.1488C119.057 12.1519 118.883 12.1549 118.713 12.1579C118.712 12.3277 118.692 12.5058 118.722 12.6672ZM290.75 11.2401C290.75 11.2441 290.75 11.2441 290.75 11.2401V11.2401ZM306.953 10.7046C307.064 10.7658 307.18 10.827 307.291 10.8843C307.361 10.812 307.42 10.7517 307.474 10.6955C307.358 10.6383 307.242 10.5613 307.12 10.5358C307.08 10.5246 307.011 10.6443 306.953 10.7046ZM326.904 17.7177C326.846 17.778 326.761 17.89 326.741 17.8785C326.63 17.8213 326.49 17.7526 326.433 17.6509C326.38 17.5413 326.379 17.4663 326.421 17.4221C326.093 17.3725 325.93 17.5728 325.919 17.8455C325.898 18.2289 325.771 18.6458 325.369 18.4672C323.705 17.7143 321.796 18.0399 320.163 17.2588C319.557 16.9692 319.066 16.8475 318.565 17.3301C318.398 17.491 318.265 17.5921 318.199 17.4392C317.75 16.365 316.494 16.8173 315.851 16.1888C315.184 15.5409 314.767 15.1809 314.894 16.5451C314.928 16.9039 314.859 17.2448 314.382 16.8542C313.937 16.4907 313.262 16.5144 312.921 15.9595C312.726 15.647 312.424 15.5535 312.037 15.5761C311.43 15.6143 310.936 15.619 311.671 16.3249C311.788 16.4335 311.764 16.8604 311.644 16.9968C311.361 17.3177 311.243 16.8853 311.118 16.7611C310.596 16.2489 310.129 15.7516 309.457 16.6005C309.348 16.7367 308.899 16.5747 308.736 16.704C307.922 17.3816 308.459 14.8684 307.273 16.1332C306.85 16.5829 306.074 16.0356 305.501 15.5401C305.016 15.1221 304.128 14.4741 303.892 15.9315C303.828 16.3276 303.293 16.4238 303.087 16.1865C301.971 14.8869 300.223 15.6638 298.941 14.845C298.322 14.4491 297.557 15.193 297.255 15.5458C296.434 16.4961 295.632 15.1358 294.845 15.738C294.518 15.9846 294.242 15.3417 293.969 15.0779C293.804 14.9189 294.173 14.3319 293.568 14.4965C293.454 14.5301 293.481 14.9561 293.382 15.1751C293.249 15.4617 292.927 15.3331 292.707 15.4159C292.146 15.6271 291.609 14.4951 291.064 15.409C290.656 14.6539 289.583 14.7043 289.237 13.8928C289.187 13.7792 289.224 13.6087 289.295 13.3705C289.338 13.3776 289.374 13.3968 289.449 13.3639C289.55 13.3068 289.619 13.1674 289.68 13.0518C289.692 13.0318 289.576 12.9509 289.366 13.1323C289.418 12.9734 289.273 13.0391 289.224 13.1466C289.212 13.1666 289.228 13.1742 289.22 13.1901C288.629 13.4651 288.362 14.461 287.701 13.7103C287.544 13.5314 287.208 13.3082 287.175 13.6563C287.027 15.1201 286.155 14.5074 285.577 14.1739C285.054 13.8789 284.441 13.8304 284.117 14.0256C283.155 14.5993 282.394 14.4269 281.366 14.121C280.528 13.8711 279.525 13.8412 278.848 13.3001C278.259 12.8365 277.385 13.456 277.02 12.6409C276.472 12.9427 275.916 13.4737 275.388 12.6101C275.147 12.8316 274.918 13.0725 274.657 13.2706C274.509 13.3837 274.347 13.8447 274.127 13.422C273.546 12.3105 272.735 13.1382 272.061 13.1737C271.189 13.2205 270.697 13.083 270.88 12.0727C270.902 11.946 270.741 11.7908 270.672 11.6459C270.571 11.7464 270.375 11.8643 270.385 11.955C270.475 12.8341 269.768 12.803 269.374 12.6322C268.637 12.3094 267.829 12.5841 267.123 12.1936C266.772 11.9983 266.153 11.1679 266.133 12.4873C266.127 12.8468 265.751 12.5651 265.618 12.4016C265.416 12.1444 265.144 12.1768 264.912 12.2283C263.232 12.6249 262.753 12.5424 261.476 11.5458C260.867 11.0706 260.449 11.7691 260.105 11.9449C259.189 12.419 259.046 12.5834 258.912 11.9302C258.661 10.6905 258.267 11.8743 258.036 11.7875C257.055 11.4215 256.363 11.8483 255.485 12.2269C254.873 12.4904 253.583 12.0627 253.087 11.5026C252.177 10.4799 251.223 11.0415 250.488 11.2637C249.596 11.5241 249.46 11.408 249.418 10.5873C249.384 10.0113 249.65 9.37476 249.07 8.72931C248.85 9.01749 248.439 9.48277 248.475 9.52558C249.529 10.6288 248.416 11.1103 247.87 11.7477C247.607 12.0485 247.222 12.1698 246.996 11.8736C246.284 10.9303 245.845 12.0161 245.277 12.0378C245.214 11.3794 244.813 11.4694 244.381 11.6349C244.189 11.7093 244.134 12.1605 243.853 11.9126C243.72 11.7925 243.657 11.3513 243.762 11.2507C244.356 10.644 244.208 10.5558 243.429 10.4549C243.033 10.4025 242.793 9.58921 242.576 10.6909C242.453 11.3289 241.864 12.0105 240.859 11.1948C240.286 10.7309 239.234 11.314 238.507 10.6237C238.31 10.4376 237.748 10.5659 237.354 10.8926C236.584 11.534 236.346 11.0406 236.36 10.2741C236.368 10.0134 236.351 9.7609 236.096 9.59949C236.037 9.65185 235.963 9.69264 235.921 9.76052C235.644 10.184 236.113 10.7919 235.582 11.1526C235.392 10.4767 234.255 10.9586 234.21 9.9444C234.194 9.47472 233.259 9.55817 233.296 9.86951C233.427 10.9888 232.17 10.4934 232.008 11.1518C231.459 10.0517 230.414 11.6851 229.805 10.7519C229.691 10.5801 229.078 10.9857 229.182 10.3836C229.204 10.2806 229.631 10.2731 229.854 10.1784C230.078 10.0837 230.11 9.90144 229.943 9.82537C229.21 9.49457 228.28 10.0361 227.639 9.28899C227.398 9.53805 227.138 9.7756 226.917 10.0401C226.655 10.3646 226.441 10.1432 226.442 9.93387C226.44 9.36522 226.183 9.1209 225.664 9.26028C225.267 9.36989 225.457 9.84838 225.284 10.1081C225.211 10.22 225.006 10.2433 224.857 10.3051C224.799 10.164 224.759 9.91191 224.676 9.89361C224.363 9.83194 224.315 10.0618 224.335 10.3142C223.474 10.503 224.134 9.19615 223.235 9.2395C222.71 9.26445 221.988 8.43191 222.229 9.78624C222.308 10.239 222.007 10.4141 221.619 10.3537C220.954 10.2508 221.316 9.97989 221.549 9.73888C221.607 9.67862 221.709 9.60182 221.7 9.54668C221.633 9.14107 221.87 8.68277 221.473 8.30663C220.863 8.6885 220.232 9.18133 219.786 9.61564C219.343 10.0459 219.408 10.5937 218.786 9.84239C218.25 9.20013 218.004 9.3466 218.046 10.1594C218.046 10.2068 217.749 10.3502 217.713 10.3153C217.46 10.0907 217.057 9.84494 217.032 9.58076C216.892 7.88503 216.232 9.90672 215.955 9.41395C215.883 9.09533 216.143 8.62083 215.753 8.48545C215.396 8.35742 214.618 8.39863 214.592 8.48992C214.288 9.84192 213.204 9.71473 212.494 9.32429C211.629 8.84574 210.902 9.26521 210.189 9.18286C209.01 9.03758 207.809 9.2402 206.666 8.90868C206.424 8.84181 206.204 8.26905 206.03 8.91977C205.982 9.10622 206.13 9.43143 206.29 9.56291C206.482 9.71357 207.069 9.39134 206.944 9.92272C206.856 10.2955 206.338 10.0715 206.019 10.1008C205.877 10.1151 205.599 9.98965 205.598 9.93438C205.667 7.81242 204.092 8.76798 203.122 8.59931C203.039 8.58101 202.948 8.59839 202.861 8.59991C202.608 8.1541 203.646 8.06096 203.172 7.64665C202.779 7.30993 202.426 7.67942 202.156 8.00009C202.005 8.18439 201.734 8.30363 201.815 8.61817C201.037 9.07801 201.037 9.07801 200.248 8.64553C200.19 8.50041 200.15 8.24836 200.067 8.23401C199.753 8.16839 199.702 8.40229 199.726 8.65462C199.239 8.57624 198.676 8.89411 198.259 8.50648C197.367 7.67689 197.228 8.28356 197 9.04579C196.888 9.42292 196.39 9.17097 196.076 9.23965C195.325 8.52609 194.505 8.18497 193.52 8.75901C193.461 8.79162 191.992 8.77383 191.89 8.79536C191.177 8.91838 190.549 8.25007 189.713 8.77411C188.991 9.22904 187.924 8.77375 187.217 8.52939C185.973 8.09299 186.13 8.68264 186.146 9.42086C186.149 9.59063 186.152 9.76039 186.155 9.93411C185.644 9.8285 185.323 9.52607 185.265 8.89916C185.284 8.89091 185.292 8.91052 185.32 8.89424C185.425 8.84106 185.49 8.69776 185.551 8.58611C185.563 8.56616 185.451 8.48124 185.241 8.66262C185.293 8.50768 185.148 8.5734 185.099 8.67694C185.087 8.70479 185.103 8.71241 185.096 8.73623C184.638 8.95354 184.651 9.26925 184.557 9.55918C184.464 9.84911 184.175 10.0832 183.967 10.3356C183.92 10.3917 183.799 10.4689 183.795 10.465C182.937 9.49663 182.829 10.7741 182.346 10.9366C182.252 10.9659 182.004 10.8241 182.004 10.7885C182.091 10.1512 181.366 9.7689 181.522 8.96843C181.565 8.97163 181.597 8.99081 181.664 8.95806C181.77 8.90487 181.838 8.7615 181.899 8.64985C181.907 8.62998 181.795 8.54505 181.589 8.72636C181.637 8.57149 181.496 8.63714 181.443 8.74076C181.431 8.76465 181.447 8.77227 181.444 8.79208C180.464 9.21201 181.339 10.2472 180.677 10.5668C180.469 10.6692 180.29 11.0396 180.14 11.0146C179.863 10.972 179.904 10.6277 179.892 10.3752C179.871 10.0754 180.005 9.6189 179.574 9.59877C179.321 9.58739 179.458 10.1734 179.356 10.2226C178.663 10.5783 178.091 11.2833 177.192 11.1213C177.045 11.0962 176.834 11.0012 176.792 10.8795C176.701 10.6323 177.819 10.3877 176.846 10.1124C176.247 9.94514 176.321 10.8166 176.204 10.8542C175.626 11.0262 174.906 10.715 174.724 10.2758C174.498 9.73477 174.242 9.3601 173.595 9.17393C173.752 9.10406 173.768 8.64962 173.899 8.47356C174.258 7.98944 173.702 8.07022 173.477 8.07415C173.118 8.08437 172.597 7.88415 172.545 8.52878C172.517 8.91236 172.679 9.14649 173.397 9.11026C172.468 9.95582 172.46 9.98359 171.466 9.83902C171.308 9.81809 171.139 9.61568 171.107 9.83739C170.876 11.2829 170.142 10.881 169.316 10.3821C168.889 10.121 168.839 10.6787 168.597 10.8369C167.812 11.364 167.817 11.3876 166.81 10.5048C166.513 10.2454 166.204 10.1481 165.92 10.4216C164.956 11.323 164.066 10.7699 163.047 10.3375C163.008 10.3381 163.083 10.3368 163.162 10.3355C163.112 10.1981 163.078 10.0526 163.005 9.93538C162.916 9.79871 162.758 9.83305 162.699 10.0395C162.68 10.1069 162.844 10.2383 163.047 10.3375C163.164 10.4223 163.205 10.5559 163.162 10.5882C162.181 11.3794 160.748 10.2749 159.839 11.3808C159.423 10.6337 158.525 11.2141 158.067 10.7759C157.364 10.1049 156.583 10.5846 155.854 10.4709C155.359 10.3887 155.366 10.7717 155.321 11.1319C155.29 11.4009 154.932 11.6836 154.818 11.5079C154.31 10.7111 152.87 11.6683 152.676 10.3052C152.626 9.92697 152.06 9.84602 151.867 10.1021C151.527 10.5543 150.941 10.45 150.588 10.8314C150.189 11.2609 149.561 11.2719 149.216 10.9501C148.505 10.2832 147.689 10.5463 147.015 10.6647C145.83 10.8789 144.713 11.3644 143.525 10.694C143.345 10.5984 143.062 10.6666 142.825 10.88C142.308 11.3471 141.175 11.4025 140.706 10.9841C140.534 10.8292 140.891 10.2621 140.316 10.3433C140.229 10.3527 140.197 10.7798 140.142 11.0216C139.586 10.8733 139.079 11.0086 138.599 11.2895C138.573 10.7094 138.693 9.89374 137.702 10.3849C136.809 10.8231 135.243 11.3441 134.102 11.368C132.977 11.3915 131.784 11.1951 130.731 11.486C129.603 11.798 128.591 12.3922 127.451 11.5986C127.399 11.56 127.11 11.7112 127.114 11.7545C127.167 12.271 127.031 12.6288 126.437 12.5365C125.982 12.4694 126.139 12.0164 126.004 11.7463C125.82 11.3782 125.6 11.6348 125.544 11.8649C125.452 12.2337 125.54 12.9391 124.946 12.207C124.434 11.5723 123.835 11.4721 123.122 11.5557C122.89 11.5795 120.426 12.2978 120.267 12.4467C119.757 12.9137 119.7 11.8879 119.262 12.1522C119.205 12.0111 119.165 11.759 119.077 11.7408C118.764 11.6791 118.717 11.909 118.741 12.1613C118.171 12.0923 117.517 12.4196 117.061 11.8234C116.923 11.6441 116.706 11.6558 116.706 11.8888C116.7 13.1092 115.618 12.1843 115.109 12.6749C114.713 13.0649 113.671 12.6803 113.042 13.2916C112.86 13.4646 112.583 13.2166 112.476 12.9618C112.385 12.7383 112.298 12.5107 112.211 12.2872C111.973 12.4453 111.954 12.6787 111.934 12.9397C111.929 13.0661 111.769 13.1874 111.676 13.3114C110.751 12.127 110.526 14.153 110.057 13.7386C108.966 12.7743 107.491 14.0677 106.445 12.9446C106.127 12.6066 105.71 13.151 105.407 13.4485C105.174 13.6737 105.014 13.9767 104.591 13.992C103.92 14.0116 103.875 12.7486 103.05 13.2567C102.628 13.5168 102.37 14.3546 101.751 13.5044C100.657 14.4042 99.2477 13.2954 98.1396 14.069C97.5972 14.4458 97.0611 13.3691 96.9422 13.7977C96.6896 14.7104 96.4846 14.7337 95.9634 14.0596C95.62 13.6194 95.4043 13.7021 95.0156 14.0604C94.7084 14.3343 94.2131 14.4693 93.7834 14.5124C93.3222 14.5599 93.2857 13.1506 92.4882 14.0689C91.954 14.6865 91.46 13.3089 90.8026 14.1063C90.5395 14.4189 89.6593 14.225 89.0593 14.2394C88.6527 14.2504 88.434 14.3885 88.4418 14.8346C88.4443 14.9807 88.3086 15.1253 88.2361 15.2687C86.7995 13.9668 85.865 15.4049 84.7237 15.8592C84.2727 16.0448 83.8213 15.9737 83.681 15.1744C83.5934 14.6823 82.8929 14.5998 82.7094 15.3968C82.7522 15.3605 82.8311 15.3552 82.9386 15.4046C83.0461 15.4541 83.1118 15.5991 83.1964 15.6963C83.1382 15.7566 83.0533 15.8686 83.0333 15.8571C82.9217 15.7959 82.7745 15.7353 82.7252 15.6255C82.672 15.5198 82.6706 15.4369 82.7094 15.3968C81.6316 14.9654 80.5926 15.1731 79.4991 15.4212C78.3545 15.686 77.0741 15.1871 75.9824 15.7669C75.5402 16.0037 75.4808 15.7678 75.218 15.6421C74.8037 15.44 74.3768 15.4158 74.3528 16.0758C74.3335 16.5579 74.127 16.7156 73.8117 16.2985C73.1247 15.4061 72.5192 15.5588 72.3033 16.5381C72.0285 17.7671 71.6622 16.6914 71.4004 16.6249C70.4763 16.3962 70.9532 17.699 70.3824 17.5787C69.9305 17.4839 69.7522 16.7722 69.1939 16.6911C69.0514 16.6699 68.7646 16.7578 68.7541 16.833C68.5414 17.9978 68.0835 18.0058 67.2806 17.2616C67.0438 17.0406 66.6699 17.3433 66.4141 17.6203C66.1427 17.9094 65.8374 17.8397 65.5327 17.5804C64.1579 16.4236 64.0871 16.4366 62.8794 17.84C62.2195 17.8199 61.5128 18.0573 61.0144 17.3354C60.4514 16.5277 59.9069 16.7821 59.401 17.4386C59.1962 17.6989 58.9147 18.0829 58.5795 17.8874C57.8177 17.4583 57.1183 16.9848 56.3918 17.8979C55.7302 17.0999 55.1548 18.2986 54.395 17.9841C54.3555 17.9848 54.4345 17.9834 54.5095 17.9821C54.4597 17.8447 54.4295 17.6992 54.3524 17.582C54.2632 17.4454 54.1058 17.4797 54.0462 17.6861C54.0276 17.7536 54.1958 17.8849 54.395 17.9841C54.5574 18.4631 54.0909 18.6608 53.9023 18.4903C53.0714 17.7229 53.1283 18.721 52.7525 18.9132C52.2749 19.1545 52.6572 17.7498 51.7696 18.0339C51.5182 18.1093 51.3271 18.247 51.3878 18.5579C51.4305 18.5177 51.5094 18.5123 51.617 18.5657C51.7205 18.6153 51.7862 18.7563 51.8708 18.8536C51.8126 18.9138 51.7277 19.0259 51.7118 19.0182C51.5962 18.9571 51.4529 18.8924 51.4036 18.7867C51.3464 18.6771 51.3451 18.6021 51.3878 18.5579C50.9691 18.7785 50.8282 17.7225 50.1609 18.4095C49.5092 19.0843 48.4229 17.9383 47.546 18.6052C47.3315 18.763 47.1194 17.9255 46.8137 18.2823C46.1984 19.0039 45.2863 18.3366 44.6872 18.8565C44.0102 19.441 43.2119 19.4075 42.5848 19.0038C41.4825 18.3003 41.3363 19.1993 40.9516 19.7866C40.9944 19.7464 41.0693 19.7411 41.1808 19.7945C41.2844 19.844 41.35 19.985 41.4386 20.0822C41.3804 20.1425 41.2916 20.2585 41.2756 20.247C41.1639 20.1857 41.0167 20.1212 40.9675 20.0154C40.9142 19.9057 40.9128 19.8268 40.9516 19.7866C40.4087 19.9067 40.1104 18.6521 39.4537 19.4929C38.9091 20.1935 38.7359 19.0986 38.2377 19.289C37.7199 19.4876 37.106 19.1626 36.5866 19.7246C36.2457 20.1018 35.6126 20.2629 35.0857 20.3905C34.8064 20.4547 34.4091 20.5445 34.4139 19.9165C34.824 19.8817 35.2513 19.9216 35.1893 19.3145C35.1751 19.1766 35.0622 19.0443 34.5052 19.2633C34.5612 19.0767 34.4257 19.2331 34.2797 19.4686C33.8212 19.8953 33.6983 20.0949 33.6471 20.3288C33.6103 20.4874 33.638 20.716 33.5407 20.7966C33.1707 21.0953 33.1401 20.697 33.1409 20.5193C33.1436 19.99 32.6905 19.5991 32.4135 19.5723C32.0219 19.5318 31.3079 19.8088 31.2221 20.0947C30.9835 20.9084 30.5767 21.1288 29.7894 21.0477C29.3898 21.0113 28.8815 20.8464 28.5599 21.2035C28.0019 21.8174 27.9639 21.4508 27.8917 20.9308C27.865 20.7575 27.8322 20.4658 27.4261 20.7296C26.0556 21.6263 24.5851 20.87 23.17 20.8C22.8064 20.7826 22.1617 20.5016 21.991 20.6784C20.9978 21.6949 19.4406 20.7229 18.4989 21.7503C16.6108 21.5029 14.8597 22.7696 12.9998 22.3281C12.2066 22.1366 11.6785 23.1094 10.7747 22.4617C10.0828 21.9644 9.20293 22.9157 8.43653 22.9014C7.93077 22.8866 7.50513 22.2582 7.46424 23.3094C7.45348 23.5979 7.0413 23.5142 6.79264 23.5225C5.83735 23.5471 4.85174 23.4182 3.93113 23.6198C3.12073 23.7999 2.46204 22.9425 1.68125 23.4617C1.2948 23.7211 1.28839 23.354 1.27317 23.1607C1.25021 22.7504 1.13597 22.314 1.56058 21.9788C1.96186 21.6638 1.52925 21.541 1.36738 21.5438C0.759584 21.5663 0.519759 21.1756 0.757577 20.7725C0.895572 20.5332 1.11647 19.6131 1.80364 20.2922C2.16932 20.6531 2.1684 20.1476 2.35715 20.1009C3.63918 19.7902 4.87218 19.3856 6.23302 19.2908C8.0947 19.1556 9.93315 18.5943 11.7786 18.2067C12.05 18.1466 12.1968 17.9585 12.1558 17.6472C12.0874 17.1192 11.8662 17.1151 11.5804 17.4874C11.3835 17.7436 11.1297 17.6848 10.8812 17.701C10.0532 17.7787 9.27965 17.808 9.49891 16.568C9.54596 16.3224 9.317 16.1012 8.99034 16.1662C9.53448 14.5335 11.3865 14.9751 12.3692 14.0339C13.0406 15.1635 13.6943 14.1529 14.2831 13.9491C14.8799 13.7452 15.2327 13.1466 16.0153 13.8596C16.5851 14.3749 17.2086 12.9937 18.0917 13.3574C18.2628 13.4294 18.4687 12.7821 18.8965 12.8576C20.8851 13.2059 22.7167 12.2498 24.6777 12.1485C26.2718 12.0693 27.9918 11.9603 29.4745 11.1525C30.0613 10.8342 30.6284 12.1038 31.1161 11.0804C31.8123 11.3723 31.9795 10.3189 32.7211 10.4916C33.3831 10.638 34.1946 10.2921 34.7873 10.5345C35.718 10.9132 36.1892 9.40028 37.1028 10.1544C37.6357 10.5914 38.4412 9.22669 38.9194 10.3794C39.0401 10.2786 39.1607 10.1738 39.2853 10.0729L41.1601 9.32931C43.1394 9.59885 45.0049 8.78039 46.943 8.72286C48.0442 8.68784 48.9516 7.95324 50.119 8.08689C51.1795 8.21055 52.2902 8.2662 53.3132 7.59276C53.6177 7.38999 54.3117 7.33048 54.7841 7.69741C54.9363 7.81718 55.0814 8.21352 55.3312 7.81819C56.0112 6.72818 57.1267 6.83113 58.1086 6.97591C59.526 7.18023 60.7251 6.41684 62.0662 6.32234C63.3915 6.22417 64.8147 6.76407 66.062 5.81818C66.1906 5.72115 66.3959 6.16778 66.8649 6.34126C66.8578 6.38483 66.8387 6.42465 66.8755 6.4951C66.9287 6.6008 67.072 6.66938 67.1837 6.73062C67.2036 6.73817 67.2885 6.62611 67.1032 6.42003C67.262 6.4686 67.1964 6.32758 67.0928 6.27409C67.0769 6.27042 67.0731 6.27839 67.0651 6.27458C66.9028 5.7956 67.1818 5.71965 67.4982 5.74177C68.3365 5.80217 69.2433 5.71921 69.9871 6.02216C70.6156 6.27974 70.8653 6.10162 71.246 5.73954C71.6034 5.40156 73.0759 5.37191 73.6491 5.63045C73.7069 5.77162 73.7468 6.02367 73.83 6.03802C74.1432 6.10364 74.1944 5.87369 74.1703 5.62136C74.6959 5.63983 74.9106 4.81859 75.4996 5.0808C76.9644 5.73451 78.2365 5.08437 79.5626 4.57942C80.4218 4.25638 80.7844 4.88983 80.9542 5.57008C81.0731 6.04586 81.4141 6.12285 81.7001 5.99148C82.2797 5.71281 81.6725 5.54175 81.5776 5.3104C81.4081 4.87894 81.372 4.39381 82.0168 4.45364C83.2629 4.57012 84.575 3.94693 85.7657 4.73969C86.6219 4.01388 87.822 5.11847 88.6315 4.20786C89.197 3.57401 89.787 3.66244 90.4104 4.08597C90.4824 4.13606 90.5598 4.26898 90.5951 4.25652C91.4426 3.93763 92.3413 3.83901 93.2026 3.63441C94.0049 3.44664 94.5126 4.47248 95.452 3.76497C95.9937 3.35269 97.1646 3.00841 98.072 3.63235C99.1217 2.68595 100.294 3.99244 101.253 3.52943C102.303 3.0214 103.355 3.11757 104.423 2.96466C105.033 2.87896 105.404 3.28717 106.036 3.54073C106.017 3.58845 106.006 3.63603 106.051 3.71818C106.104 3.82389 106.244 3.89254 106.359 3.94976C106.379 3.95731 106.46 3.84532 106.279 3.63918C106.437 3.68774 106.372 3.54672 106.264 3.4933C106.26 3.48942 106.26 3.49732 106.252 3.49351C106.104 2.9274 106.494 2.62046 106.761 2.54076C107.154 2.42333 106.936 3.0906 107.133 3.23724C107.753 3.70822 108.659 3.56209 109.124 2.81941C109.358 2.44804 109.563 2.43656 109.89 2.37162C110.614 2.22076 111.35 3.64544 112.046 2.34189C112.892 2.42584 113.671 2.25823 114.422 1.80676C114.633 1.68065 115.129 1.59695 115.352 1.96823C115.544 2.28873 115.455 2.61807 115.143 2.84467C114.944 2.99032 114.895 3.1215 115.066 3.20934C115.206 3.278 115.408 3.36529 115.53 3.31577C115.997 3.11807 116.398 2.82671 116.479 2.2645C117.005 2.29087 117.175 1.63232 117.796 1.68467C118.591 1.76163 118.716 1.89767 118.106 2.44542C118.198 2.54649 118.28 2.72277 118.391 2.74058C118.633 2.77981 119.016 2.78891 119.039 2.51997C119.166 0.99728 120.296 1.89379 120.956 1.72429C121.129 1.68178 121.209 1.96078 121.037 2.05857C120.904 2.13198 120.73 2.13501 120.581 2.19685C120.436 2.25862 120.304 2.35177 120.167 2.43314C120.279 2.52991 120.397 2.70557 120.507 2.70364C121.246 2.69076 121.994 2.83566 122.582 2.09874C123.088 1.46197 123.757 1.08697 124.316 2.12771C124.175 2.18941 123.923 2.2254 123.909 2.31254C123.843 2.62567 124.077 2.67293 124.325 2.64885C124.158 3.00326 123.99 3.35372 123.822 3.70813C123.492 3.53618 123.164 3.34838 122.819 3.21225C122.707 3.17075 122.491 3.23771 122.402 3.33404C122.115 3.63525 122.566 3.65503 122.624 3.83173C122.674 3.97303 122.732 4.11024 122.785 4.24753C122.533 4.25194 122.12 4.35393 122.055 4.24449C121.583 3.45892 121.192 4.16871 120.688 4.26438C120.643 4.13486 120.609 3.99328 120.54 3.8839C120.45 3.74724 120.293 3.78158 120.233 3.98798C120.211 4.05551 120.379 4.18685 120.582 4.28598C120.673 4.93208 120.187 4.95635 119.859 4.70933C119.503 4.4391 119.591 3.81359 119.119 3.50193C118.804 3.30207 118.537 3.16851 118.236 3.38306C117.901 3.62587 118.137 4.01273 118.079 4.32967C117.938 4.38743 117.686 4.42737 117.672 4.51056C117.606 4.82369 117.84 4.87095 118.088 4.85082C118.157 5.16951 117.963 5.34667 117.702 5.36701C117.21 5.4151 116.682 5.5033 116.349 4.96412C115.287 5.45261 115.72 3.348 114.589 3.94828C114.849 4.58746 115.058 5.2394 114.972 5.94782C114.323 5.86042 114.152 4.03094 113.051 5.43634C112.916 5.60457 112.371 5.40082 112.049 5.48938C111.444 5.66186 111.248 4.86358 110.705 4.97968C110.159 5.09586 110.008 5.75801 109.557 5.91596C109.156 6.06117 108.589 6.37516 108.381 5.53366C108.397 5.53338 108.397 5.54128 108.409 5.53712C108.697 5.51235 109.145 5.62301 109.118 5.2167C109.102 4.97608 108.691 4.76209 108.309 5.03731C108.203 4.62054 108.088 4.81211 108.167 5.04768C108.18 5.08696 108.173 5.13842 108.158 5.19397C107.844 5.5075 107.61 5.49577 107.418 5.56627C106.398 5.93556 105.403 6.41499 104.343 5.62785C104.231 5.54687 103.927 5.82466 103.992 6.13157C104.031 6.09535 104.114 6.08995 104.217 6.13949C104.325 6.18895 104.391 6.33393 104.475 6.42723C104.417 6.48749 104.332 6.60349 104.312 6.592C104.2 6.53076 104.057 6.46612 104.004 6.36437C103.951 6.25472 103.949 6.17576 103.992 6.13552C103.732 6.14007 103.37 6.03579 103.231 6.16856C102.469 6.88876 101.876 7.2901 101.9 5.72972C101.908 5.06611 101.471 5.13298 101.036 5.13661C100.322 5.14514 99.9344 5.57841 99.8308 6.2042C99.7237 6.85375 99.2666 6.91307 98.9614 6.6222C98.3589 6.04428 97.9663 6.17751 97.4823 6.72701C97.3621 6.85943 96.9756 6.88592 96.7973 6.62838C96.3153 5.93778 96.158 6.65534 95.8766 6.82612C95.6656 6.95223 95.6173 7.12684 95.7842 7.18712C96.0982 7.30011 96.0701 7.95223 96.7316 7.61289C97.1348 7.41234 97.7356 7.44135 98.2548 7.32171C98.9982 7.14681 99.8105 7.30245 100.583 7.22972C102.247 7.0743 103.99 7.59678 105.573 6.64502C105.764 6.52716 106.155 6.51639 106.331 6.63179C108.42 8.00915 110.331 6.3961 112.311 6.23911C112.954 6.18445 113.48 5.80403 114.118 6.3537C114.443 6.63238 114.94 6.6079 114.98 5.94373C115.475 6.03382 116.049 5.67626 116.463 6.11134C116.979 6.6592 117.767 6.59409 118.134 6.36257C119.337 5.59517 120.616 5.97963 121.853 5.81586C123.516 5.60122 125.136 4.9845 126.85 5.21523C127.666 5.32342 128.504 4.91387 129.309 5.59093C129.922 6.10547 130.366 5.03934 131.121 5.09329C132.679 5.20827 134.253 5.07812 135.816 5.05083C136.337 5.04174 136.858 5.02079 137.379 5.02749C137.822 5.03556 137.96 4.82384 137.973 4.405C137.978 4.2351 138.186 3.7378 138.347 4.14176C139.029 5.86358 140.394 4.6234 141.379 4.94189C143.566 3.77422 145.926 4.59791 148.193 4.34904C148.953 5.173 149.651 4.21695 150.382 4.1963C152.576 4.1264 154.854 4.73432 156.972 3.69424C157.671 4.36131 158.553 4.00233 159.349 4.1385C160.043 4.26067 160.396 3.67397 160.955 3.56548C160.914 3.52669 160.909 3.44385 160.959 3.33636C161.012 3.2288 161.153 3.16315 161.25 3.07852C161.311 3.1367 161.423 3.22163 161.415 3.23756C161.354 3.35316 161.289 3.49646 161.179 3.54971C161.074 3.6029 160.995 3.60428 160.955 3.56154C161.016 3.71053 161.044 3.947 161.152 3.98462C162.373 4.47671 163.557 3.55955 164.867 3.9553C166.078 4.32909 167.262 3.57387 168.366 3.03724C168.621 2.91432 168.895 2.81869 169.071 2.93805C169.603 3.31184 169.894 4.17164 170.817 3.40913C171.495 2.85231 171.994 3.8467 172.67 3.92178C173.244 3.99075 173.495 3.17678 173.923 3.52868C174.452 3.96176 174.803 3.93984 175.201 3.43529C175.727 2.77054 176.031 3.9342 176.669 3.58343C177.232 3.26951 178.001 3.85243 178.745 3.29444C179.271 2.89823 180.089 3.82782 180.913 3.25266C181.33 2.96497 182.162 3.34538 182.688 3.12689C183.26 2.88785 183.619 4.21248 184.131 3.22808C185.821 4.13455 187.639 3.30507 189.354 3.60686C190.404 3.786 191.299 2.78702 192.183 3.20206C193.214 3.68956 194.206 3.51427 195.181 3.43408C196.411 3.33757 197.773 3.98122 198.888 2.90731C199.004 2.7947 199.36 2.82403 199.581 3.06502C199.867 3.37202 200.188 3.67446 200.548 3.89329C201.234 4.32362 202.223 4.16419 202.764 3.51101C202.888 3.36668 202.746 2.90315 203.014 2.87083C203.25 2.84301 203.323 3.18531 203.308 3.44228C203.252 4.27656 203.308 4.32692 204.181 3.91675C205.008 3.53109 206.135 3.855 207.057 3.28601C207.546 2.98919 207.973 3.51092 208.404 3.74826C208.612 3.86706 208.61 3.80389 209.097 2.93052C209.288 2.58754 209.86 2.54202 209.932 2.8409C210.154 3.74931 210.876 4.16323 211.47 4.74129C211.721 4.19191 211.953 3.68236 212.189 3.16879C213.208 4.28444 213.208 4.28444 215.816 3.94666C215.493 3.28884 214.921 3.77668 214.481 3.66589C214.088 3.56611 213.626 3.81113 213.096 3.30698C214.754 3.02924 216.225 2.71526 217.303 4.25641C217.979 5.22401 218.438 4.11812 219.002 4.09642C218.949 4.42119 219.156 4.52815 219.41 4.61455C219.887 4.77999 220.192 3.95717 220.39 4.21436C220.976 4.97029 221.183 3.90828 221.572 4.05945C221.942 4.19912 222.278 4.45785 222.651 4.54218C223.091 4.63323 223.427 3.75853 224.068 4.48585C224.298 4.74645 225.049 4.56746 225.812 4.63707C225.817 4.67254 225.797 4.68867 225.818 4.73571C225.871 4.83746 226.014 4.90604 226.126 4.96728C226.15 4.97871 226.231 4.86277 226.049 4.65663C226.145 4.68656 226.144 4.64708 226.116 4.60018C227.174 3.69708 227.661 3.75177 228.406 4.8169C228.531 4.98848 228.453 5.48745 228.666 5.44425C229.071 5.36214 228.949 4.91406 228.939 4.59434C228.931 4.32989 228.945 4.04923 229.204 3.94203C229.522 3.80617 229.334 3.92397 229.349 4.11327C229.473 5.74216 230.527 4.36916 231.018 4.67258C231.685 5.08352 232.267 5.40114 233.104 4.93237C233.698 4.6021 234.22 5.09849 234.643 5.56897C234.76 5.69726 234.929 6.10503 235.186 5.70166C236.12 4.22808 236.613 5.54248 237.218 6.02558C237.943 6.60136 238.199 6.56135 238.338 5.45709C238.449 4.59026 238.975 4.84963 239.432 4.79032C239.858 4.74339 240.01 5.1238 240.243 5.34879C241.091 6.16334 242.109 6.37067 243.238 6.29964C243.818 6.26582 244.462 6.0808 244.876 6.7252C245.323 6.31063 245.855 6.25 246.451 6.2159C248.088 6.12414 248.173 5.98839 248.296 4.23277C248.309 4.07062 248.354 3.91582 248.39 3.72168C248.832 3.51254 248.92 3.98887 249.116 4.16316C249.578 4.57768 248.84 4.6182 248.833 4.89477C248.824 5.49916 248.85 6.10689 248.861 6.71884C248.491 6.78848 247.976 6.50916 247.829 7.11202C247.792 7.25879 247.827 7.46749 247.908 7.5806C248.199 7.97834 248.258 7.47971 248.435 7.41739C248.58 7.36747 248.721 7.29787 248.87 7.23998C248.928 7.38114 248.968 7.6332 249.051 7.64754C249.364 7.71316 249.411 7.47933 249.391 7.23088C249.532 7.16918 249.784 7.13318 249.798 7.04605C249.864 6.73292 249.634 6.68559 249.382 6.70974C249.268 6.28126 250.308 5.89978 249.43 5.37801C249.366 5.33963 250.054 5.19334 250.401 5.12015C250.649 6.00835 251.325 6.05578 252.114 6.1921C252.696 6.28856 253.191 7.05792 253.756 6.17132C254.602 6.45275 255.423 6.66352 255.825 5.47173C256.259 6.14342 256.372 6.955 257.236 7.0979C257.294 7.23906 257.334 7.49112 257.417 7.50546C257.73 7.57108 257.777 7.33725 257.757 7.0888C258.014 7.08432 258.287 7.13879 258.511 7.0559C258.785 6.95632 258.793 6.73108 258.533 6.55C258.27 6.36899 258.358 6.00016 258.537 6.05628C259.609 6.38511 258.945 4.81304 259.824 4.93987C260.129 4.98194 260.297 5.08959 260.333 5.34566C260.379 5.69635 260.392 6.02784 260.877 5.98384C260.26 6.61463 260.719 7.34513 260.656 8.02551C260.58 8.84434 261.103 9.41574 261.071 10.2654C262.005 9.30126 261.97 9.32162 261.499 8.35438C261.295 7.94328 261.403 7.56621 262.018 7.51598C262.467 7.48049 262.634 7.09055 262.1 7.04063C260.431 6.8881 262.446 6.23291 261.92 5.96564C262.283 5.97115 262.454 5.7944 262.436 5.43139C262.762 5.36645 262.876 5.57376 262.968 5.83282C263.039 6.06063 262.915 6.68282 263.429 6.23944C264.518 5.30025 265.579 5.67665 266.651 6.1911C266.834 6.27873 266.995 6.426 267.015 6.26767C267.224 4.62115 268.245 6.34889 268.718 5.84697C268.78 5.99202 268.816 6.24414 268.903 6.25842C269.216 6.32404 269.263 6.09021 269.243 5.83781C270.195 6.0542 269.659 6.79417 269.772 7.40433C269.643 7.45398 269.501 7.48409 269.392 7.55709C269.255 7.64636 269.289 7.80373 269.492 7.86338C269.563 7.88188 269.695 7.71372 269.794 7.51847C270.99 7.05922 269.736 5.80156 270.573 5.31699C271.048 5.8379 270.692 6.47994 270.84 7.0421C270.903 7.27795 271.092 7.46027 271.335 7.13614C271.385 7.06812 273.755 6.40673 273.835 6.42509C274.033 6.46112 274.066 6.98975 274.387 6.62081C274.871 6.07131 275.612 5.98334 275.94 6.47127C276.553 7.38865 275.352 7.1608 275.046 7.52552C274.327 8.37532 274.299 8.37186 273.46 7.59665C273.223 7.37963 273.037 7.35128 272.947 7.64114C272.869 7.87553 272.929 8.15487 272.945 8.41918C272.967 8.7387 272.795 8.87202 272.508 8.92048C272.224 8.96887 272.025 8.84598 271.902 8.59932C271.795 8.38791 272.09 7.82199 271.486 8.07343C271.353 8.1271 271.399 8.54095 271.288 8.74825C271.227 8.8599 271.01 8.88343 270.861 8.94921C270.804 8.80805 270.764 8.55599 270.68 8.5377C270.367 8.47603 270.316 8.70598 270.34 8.95831C269.417 8.35439 268.54 8.0972 267.778 9.20445C267.662 9.37629 267.45 9.66828 267.254 9.30048C267.123 9.0579 266.547 9.07586 266.835 8.58508C266.927 8.42946 267.428 8.1877 266.984 8.07698C266.159 7.87417 265.651 7.53944 265.529 6.65299C265.493 6.38113 265.082 6.36066 264.874 6.45511C264.291 6.72595 264.854 6.89383 264.965 7.11701C265.199 7.61843 265.452 8.11951 265.604 8.65001C265.667 8.87007 265.434 9.10319 265.109 9.05357C265.051 8.90846 265.011 8.66035 264.928 8.64206C264.615 8.57644 264.564 8.81033 264.588 9.06267C264.07 9.02826 263.929 9.51649 264.106 9.71876C264.473 10.1428 265.522 10.5273 265.558 10.349C265.805 9.11645 266.216 9.54371 266.918 9.96192C267.381 10.2382 268.255 10.3019 268.607 9.8811C269.357 8.98337 269.782 9.99881 270.355 10.0046C270.412 10.1458 270.452 10.3978 270.536 10.4161C270.849 10.4778 270.896 10.2479 270.876 9.99551C271.67 10.4911 272.419 9.01682 273.221 9.94668C273.309 9.81876 273.461 9.69369 273.475 9.56312C273.574 8.26603 273.998 9.2341 274.548 9.52069C274.541 9.56031 274.526 9.58427 274.531 9.65132C274.555 9.93918 274.441 10.3874 274.851 10.3605C275.092 10.3405 275.306 9.93399 275.027 9.55183C275.447 9.44576 275.256 9.33063 275.02 9.40977C275.004 9.414 274.988 9.40638 274.969 9.40672C274.651 8.61847 275.598 9.02846 275.8 8.40489C275.864 8.19447 276.125 7.52645 276.696 8.13256C277.243 8.71934 277.387 9.26972 276.837 9.87961C276.686 10.0481 276.028 9.70416 276.279 10.2843C276.423 10.6095 276.762 11.0222 277.286 10.9262C277.616 10.8652 278.773 8.79532 278.63 8.50163C278.49 8.20787 278.123 8.4078 277.951 8.28837C277.467 7.94928 276.939 7.59516 277.1 6.85779C277.133 6.69925 277.138 6.52935 277.206 6.38203C277.302 6.18685 277.448 6.21194 277.567 6.43498C278.326 7.8553 279.233 6.84821 280.081 6.57671C280.226 6.53073 280.305 6.2845 280.45 6.22668C280.776 6.10252 281.159 6.09189 281.265 6.5126C281.345 6.83898 281.304 7.20303 280.795 7.21587C280.424 7.22629 280.102 7.30301 280.528 7.74183C280.794 6.70248 281.631 9.38522 281.867 7.5289C281.933 7.03803 282.655 6.28298 283.195 6.70006C284.02 7.3294 284.789 6.13515 285.557 6.9116C286.204 7.56377 287.259 6.71996 287.972 7.27226C288.324 7.54256 288.405 7.41872 288.738 7.26284C289.502 6.91382 290.393 6.83113 291.159 7.26797C291.574 7.50164 291.796 7.56489 292.258 7.33172C293.311 6.80784 292.551 7.85185 292.808 8.05274C292.027 8.10981 292.373 8.70801 292.305 9.10807C291.801 9.21164 291.368 9.53908 291.424 10.0041C291.461 10.3313 292.01 10.1005 292.323 10.1543C292.216 10.3497 292.085 10.5415 292.01 10.7561C291.821 11.2531 291.518 11.7875 292.419 12.2378C292.403 12.2421 292.383 12.2464 292.379 12.2543C292.286 12.5403 292.494 12.7223 292.732 12.7497C292.941 12.7737 293.164 12.6553 292.872 12.4234C293.276 12.2861 293.097 12.2102 292.845 12.2343C292.813 12.2388 292.774 12.2356 292.738 12.2362C292.358 11.6939 292.187 11.2032 292.949 11.1781C293.423 11.1619 293.943 11.3542 294.604 10.7622C293.695 10.6754 292.924 10.6296 292.323 10.1582C292.317 9.80687 292.311 9.45944 292.305 9.11202C293.086 9.051 292.74 8.45675 292.808 8.05274C293.667 7.30318 294.717 7.48626 295.712 7.49653C296.696 7.50306 297.795 7.10081 298.548 8.18949C298.913 8.71233 299.65 8.61258 299.966 8.41355C300.927 7.80044 301.79 8.6384 302.691 8.41732C303.12 8.31111 303.224 8.61339 303.302 9.00695C303.423 9.61302 303.836 9.55841 304.242 9.25119C305.084 8.60856 305.991 8.77045 306.873 9.08678C307.032 9.14325 308.082 9.54749 306.868 9.9399C306.02 10.2193 306.704 11.1631 306.445 11.7205C306.251 12.1346 305.544 12.3523 306.657 12.5698C307.811 12.7985 308.929 13.0515 310.117 13.0031C310.681 12.9775 311.274 12.7736 311.827 13.2694C312.132 13.5366 312.759 12.7911 313.126 13.4561C313.779 12.8681 314.309 14.2687 315.102 13.5203C315.657 12.9893 316.17 14.0862 316.926 13.9466C318.091 13.7328 319.262 13.8505 320.229 14.7341C320.615 15.0867 320.68 14.2957 320.943 14.4373C321.238 14.598 321.445 14.9103 321.709 15.1387C321.83 15.2432 322.089 15.4006 322.112 15.3765C323.011 14.3854 323.94 15.5224 324.821 15.3293C325.828 15.1063 326.376 16.4316 327.516 15.6653C327.236 16.5825 326.492 16.7534 326.449 17.4018C326.487 17.3617 326.566 17.3563 326.674 17.4098C326.758 17.4754 326.823 17.6165 326.904 17.7177ZM268.076 7.96313C268.285 7.97527 268.503 7.80165 268.719 7.71495C268.47 7.48629 268.229 7.26538 267.969 7.02508C267.887 7.07786 267.694 7.14045 267.684 7.22752C267.634 7.55617 267.617 7.93954 268.076 7.96313ZM116.476 4.09307C116.536 4.15125 116.596 4.20549 116.664 4.27539C116.774 4.21424 116.887 4.14907 116.997 4.08397C116.936 4.02578 116.867 3.91641 116.824 3.92506C116.702 3.95484 116.593 4.03178 116.476 4.09307ZM101.914 4.27221C101.975 4.37777 102.04 4.49116 102.105 4.60455C102.164 4.5443 102.273 4.4713 102.264 4.42801C102.234 4.3061 102.157 4.19687 102.096 4.08341C102.038 4.13972 101.98 4.19997 101.914 4.27221ZM10.4439 15.9513C10.3828 15.8457 10.3176 15.7323 10.2524 15.6189C10.1943 15.6792 10.085 15.7522 10.0936 15.7954C10.1234 15.9174 10.2003 16.0266 10.2615 16.14C10.3198 16.0837 10.378 16.0235 10.4439 15.9513ZM14.6733 17.9745C14.4526 17.5479 14.1855 17.1813 13.6674 17.139C13.529 17.1296 13.3851 17.2545 13.2439 17.3123C13.4372 17.7512 13.7081 18.1138 14.2301 18.152C14.3686 18.1654 14.5165 18.0404 14.6733 17.9745ZM15.7762 17.3549C15.7159 17.2968 15.6428 17.1835 15.5995 17.1922C15.4776 17.2219 15.3685 17.3028 15.255 17.364C15.3153 17.4222 15.3715 17.4765 15.4438 17.5464C15.5493 17.4813 15.6627 17.4162 15.7762 17.3549ZM27.6743 15.4886C27.6814 15.445 27.5656 15.372 27.5054 15.3178C27.4442 15.4334 27.3831 15.5489 27.3257 15.6566C27.398 15.7264 27.4583 15.7846 27.5145 15.8389C27.5717 15.7234 27.6488 15.6114 27.6743 15.4886ZM44.4567 12.6681C44.3965 12.6099 44.3235 12.5006 44.2802 12.5093C44.1583 12.5391 44.049 12.616 43.9356 12.6772C43.9958 12.7354 44.0521 12.7937 44.1244 12.8595C44.2299 12.7985 44.3433 12.7333 44.4567 12.6681ZM46.4753 12.7C46.4104 12.5985 46.3437 12.3982 46.2607 12.3918C46.0314 12.38 45.7254 12.2708 45.5964 12.5732C45.5661 12.6448 45.7125 12.8871 45.7836 12.8898C46.0168 12.9015 46.303 13.0071 46.4753 12.7ZM49.6788 12.0557C49.6146 11.9975 49.5583 11.9432 49.49 11.8733C49.3805 11.9345 49.2671 11.9997 49.1537 12.0648C49.2179 12.1229 49.287 12.2363 49.3303 12.2276C49.4483 12.1979 49.5574 12.1131 49.6788 12.0557ZM51.8585 17.2464C51.7983 17.1882 51.742 17.1339 51.6697 17.0641C51.5602 17.1253 51.4468 17.1904 51.3374 17.2555C51.3977 17.3137 51.4706 17.423 51.5101 17.4184C51.632 17.3886 51.745 17.3037 51.8585 17.2464ZM70.1257 15.0912C70.06 14.9462 70.0161 14.6942 69.933 14.6838C69.6241 14.6379 69.561 14.868 69.6048 15.1161C69.6351 15.2656 69.7065 15.5132 69.7897 15.5275C70.0985 15.5695 70.1498 15.3395 70.1257 15.0912ZM71.5973 9.57997C71.5371 9.52179 71.4808 9.46748 71.4085 9.39765C71.299 9.4588 71.1856 9.52397 71.0762 9.58907C71.1365 9.64726 71.2055 9.75663 71.2489 9.75192C71.3708 9.72215 71.4839 9.64119 71.5973 9.57997ZM77.2236 9.04735C77.2893 8.50911 76.8114 8.73466 76.5465 8.71953C76.3133 8.7078 75.9165 8.6002 75.8822 8.897C75.8127 9.43926 76.3016 9.16612 76.5476 9.23292C76.7958 9.19699 77.1933 9.34407 77.2236 9.04735ZM79.4291 8.92197C79.2933 8.83745 79.1615 8.75287 78.9658 8.62596C78.7897 8.71987 78.5862 8.8261 78.3828 8.94023C78.5186 9.02474 78.6597 9.1921 78.7819 9.17812C79.0065 9.1505 79.2174 9.01255 79.4291 8.92197ZM86.3423 7.67971C85.1781 7.27746 84.1353 7.94334 83.3507 7.1119C83.3387 7.10421 82.8117 7.45699 82.6742 7.72399C82.5139 8.04273 82.9076 7.97662 83.0597 8.09244C84.2286 8.98827 85.2011 8.371 86.3423 7.67971ZM87.6721 7.61701C87.4875 7.45041 87.319 7.30328 87.1741 7.14389C86.8561 6.79796 86.7677 7.16678 86.7388 7.32131C86.6812 7.6422 86.7271 8.00473 87.1771 7.99293C87.3112 7.98664 87.4599 7.90506 87.6721 7.61701ZM87.7762 7.47302C87.8608 7.34122 87.9568 7.18552 88.0639 6.98619C87.9665 7.06687 87.8216 7.13259 87.7761 7.24396C87.7267 7.3554 87.728 7.43042 87.7762 7.47302ZM88.2325 7.14516C88.2401 7.12923 88.1606 7.09508 87.9773 7.45766C87.9892 7.45745 87.9892 7.4614 88.001 7.45725C88.1027 7.40018 88.1713 7.26076 88.2325 7.14516ZM88.8275 7.97202C88.6941 8.02569 88.5446 8.05594 88.4274 8.12907C88.2948 8.22222 88.329 8.37564 88.5315 8.4353C88.603 8.45775 88.7304 8.28965 88.8275 7.97202ZM90.2412 7.73803C90.3664 7.44755 89.8154 6.87268 89.5667 6.42681C89.9234 7.17884 88.9937 7.31354 88.8552 7.97548C89.3437 7.90772 90.0477 8.19163 90.2412 7.73803ZM95.0655 7.19176C95.0543 6.99845 94.8946 6.67739 94.6087 7.04176C94.5507 7.10992 94.4895 7.22156 94.4302 7.2226C93.8459 7.2328 93.7259 6.46479 93.3027 6.42873C92.7569 6.38297 93.217 7.6308 92.2497 7.41468C91.873 7.33042 91.3938 7.25585 90.5212 7.94246C92.2702 7.91193 93.5536 7.90532 94.8399 7.83943C94.9346 7.83383 95.0812 7.41265 95.0655 7.19176ZM95.5628 4.4581C95.6231 4.51629 95.6832 4.57053 95.7516 4.64042C95.8611 4.57927 95.9745 4.5141 96.0839 4.449C96.0237 4.39082 95.9546 4.28144 95.9114 4.2901C95.7895 4.31987 95.6802 4.39681 95.5628 4.4581ZM109.23 12.509C109.157 12.4392 109.097 12.381 109.041 12.3267C108.983 12.4422 108.907 12.5581 108.881 12.681C108.87 12.7207 108.99 12.7936 109.05 12.8478C109.107 12.7363 109.168 12.6167 109.23 12.509ZM158.314 9.72502C158.284 9.60311 158.207 9.49388 158.146 9.38042C158.087 9.44067 158.033 9.49691 157.963 9.56922C158.024 9.67478 158.09 9.78817 158.155 9.90156C158.213 9.84131 158.326 9.76824 158.314 9.72502ZM159.42 7.52572C159.356 7.4676 159.287 7.35428 159.244 7.36293C159.122 7.3927 159.013 7.47359 158.895 7.53488C158.956 7.59307 159.016 7.64731 159.084 7.7172C159.198 7.65598 159.307 7.59088 159.42 7.52572ZM161.558 10.1028C161.443 10.0456 161.327 9.97256 161.204 9.94706C161.161 9.93597 161.096 10.0516 161.037 10.1119C161.149 10.1731 161.265 10.2343 161.376 10.2916C161.446 10.2232 161.5 10.1591 161.558 10.1028ZM163.667 8.69561C163.533 8.50443 163.444 8.37172 163.355 8.24295C163.267 8.45773 163.141 8.67319 163.121 8.8947C163.107 9.01736 163.28 9.15653 163.373 9.28918C163.476 9.07807 163.579 8.87091 163.667 8.69561ZM166.244 8.86387C166.253 8.89532 166.233 8.90356 166.25 8.94277C166.307 9.0484 166.446 9.1131 166.558 9.17434C166.582 9.18183 166.616 9.09435 166.244 8.86387ZM166.725 9.00951C166.644 8.90824 166.578 8.76721 166.467 8.71782C166.359 8.66835 166.277 8.6698 166.238 8.71392C166.184 8.58058 166.158 8.43492 166.077 8.31785C165.988 8.18119 165.83 8.21553 165.771 8.41798C165.76 8.46951 165.848 8.55091 166.151 8.71938C166.179 8.7189 166.206 8.71842 166.234 8.71794C166.226 8.72597 166.238 8.74945 166.239 8.76524C166.366 8.8341 166.526 8.91031 166.725 9.00951ZM167.695 7.8157C167.706 7.77206 167.587 7.70306 167.526 7.64488C167.465 7.76047 167.404 7.87607 167.347 7.98765C167.419 8.05352 167.479 8.11171 167.535 8.16997C167.593 8.05049 167.67 7.93857 167.695 7.8157ZM170.354 8.98171C170.289 8.87227 170.227 8.75881 170.162 8.64937C170.1 8.70969 169.991 8.77874 169.999 8.82203C170.029 8.94393 170.106 9.05317 170.171 9.17051C170.23 9.11025 170.284 9.05007 170.354 8.98171ZM175.659 9.06287C175.597 8.92178 175.549 8.66986 175.47 8.65545C175.165 8.60943 175.094 8.83973 175.142 9.08769C175.168 9.24126 175.244 9.48479 175.323 9.49921C175.632 9.54516 175.683 9.31915 175.659 9.06287ZM183.956 9.26559C183.891 9.15614 183.826 9.04275 183.764 8.93324C183.702 8.99356 183.593 9.06261 183.602 9.1059C183.631 9.22781 183.708 9.33704 183.774 9.45438C183.832 9.39413 183.886 9.33394 183.956 9.26559ZM205.445 7.7689C205.385 7.71071 205.329 7.6564 205.256 7.58658C205.151 7.64766 205.034 7.7129 204.924 7.778C204.984 7.83618 205.057 7.94549 205.097 7.94085C205.223 7.91101 205.332 7.82617 205.445 7.7689ZM208.517 8.1655C208.444 8.09568 208.384 8.03749 208.328 7.98318C208.271 8.09871 208.194 8.21063 208.168 8.3335C208.161 8.37707 208.277 8.44614 208.337 8.50432C208.394 8.38485 208.455 8.2732 208.517 8.1655ZM216.305 5.03997C216.244 4.9344 216.179 4.81707 216.114 4.70762C216.056 4.76788 215.947 4.84087 215.951 4.88028C215.985 5.00607 216.062 5.11531 216.123 5.22876C216.177 5.16858 216.236 5.11227 216.305 5.03997ZM223.708 5.35702C223.648 5.29884 223.575 5.18558 223.531 5.19424C223.409 5.22401 223.3 5.3049 223.187 5.36612C223.247 5.42431 223.303 5.47861 223.376 5.54844C223.481 5.48736 223.594 5.42219 223.708 5.35702ZM227.368 5.29314C227.307 5.23495 227.251 5.18064 227.179 5.11082C227.073 5.1719 226.96 5.23707 226.847 5.30224C226.907 5.36042 226.98 5.46973 227.023 5.46107C227.141 5.43137 227.25 5.35443 227.368 5.29314ZM234.647 8.74804C234.63 8.66541 234.377 8.63034 234.234 8.5736C233.976 8.55439 233.752 8.61754 233.809 8.92064C233.822 8.9994 234.072 9.06612 234.227 9.08712C234.472 9.13023 234.704 9.05115 234.647 8.74804ZM239.375 9.70022C239.386 9.66053 239.271 9.59146 239.211 9.53328C239.149 9.64492 239.088 9.76052 239.031 9.8721C239.099 9.94199 239.159 10.0002 239.22 10.0544C239.277 9.93889 239.35 9.82309 239.375 9.70022ZM243.008 8.06896C243.015 8.02539 242.899 7.96028 242.839 7.90209C242.778 8.01374 242.717 8.12933 242.659 8.24091C242.732 8.30679 242.792 8.36892 242.848 8.42323C242.905 8.30376 242.982 8.19183 243.008 8.06896ZM246.8 10.1827C246.74 10.1246 246.667 10.0153 246.628 10.0238C246.506 10.0536 246.393 10.1306 246.279 10.1918C246.34 10.254 246.396 10.3083 246.468 10.3742C246.578 10.313 246.691 10.2478 246.8 10.1827ZM250.355 9.50857C250.362 9.46895 250.246 9.39988 250.186 9.3417C250.125 9.45335 250.064 9.56894 250.006 9.68052C250.079 9.75034 250.139 9.80853 250.195 9.86284C250.252 9.74731 250.329 9.63144 250.355 9.50857ZM250.875 8.0975C250.814 7.98799 250.749 7.8746 250.684 7.76516C250.626 7.82541 250.516 7.89446 250.521 7.93782C250.555 8.05966 250.632 8.16889 250.693 8.2863C250.747 8.22612 250.805 8.16586 250.875 8.0975ZM251.833 7.7451C251.884 7.74421 251.939 7.74324 251.991 7.74235C251.937 7.60506 251.907 7.45947 251.834 7.34227C251.744 7.2056 251.587 7.23994 251.527 7.44239C251.512 7.4861 251.593 7.56763 251.833 7.7451ZM251.988 8.01885C252.028 8.29459 251.915 8.62829 252.316 8.71609C252.351 8.72336 252.395 8.51724 251.988 8.01885ZM252.561 8.26555C252.467 8.10921 252.388 7.86574 252.22 7.75019C252.06 7.64241 251.978 7.69913 251.973 7.84929C252.125 7.95722 252.309 8.08828 252.561 8.26555ZM253.129 7.36704C253.159 7.48895 253.236 7.59818 253.297 7.71559C253.359 7.65527 253.469 7.58227 253.46 7.53898C253.43 7.41707 253.353 7.30784 253.288 7.19445C253.23 7.2547 253.117 7.32382 253.129 7.36704ZM253.581 9.01784C253.465 8.96062 253.349 8.88761 253.227 8.86211C253.187 8.85095 253.118 8.96669 253.06 9.02694C253.171 9.08818 253.291 9.14928 253.398 9.20664C253.468 9.13828 253.523 9.0781 253.581 9.01784ZM258.791 9.06908C258.657 8.65279 258.221 8.09171 257.828 8.22099C257.223 8.41717 256.734 8.67451 256.181 8.19446C256.184 8.38791 256.146 8.68872 256.164 8.84242C255.942 8.78706 255.728 8.73156 255.462 8.66511C255.583 8.54453 256.169 8.18677 256.117 7.95466C256.022 7.49031 255.441 7.69396 255.058 7.6967C254.596 7.70081 254.567 8.0686 254.632 8.38736C254.667 8.55657 254.799 8.68458 256.168 8.8463C256.177 8.88959 256.19 8.92492 256.21 8.93642C256.938 9.23965 257.689 9.50299 258.458 9.69886C258.652 9.74681 258.81 9.51105 256.192 8.84589C256.79 8.91049 257.608 8.98308 258.791 9.06908ZM259.885 8.18904C259.791 8.01296 259.681 7.80952 259.571 7.60609C259.482 7.73796 259.319 7.88298 259.329 8.00523C259.361 8.22979 259.494 8.43676 259.589 8.65232C259.674 8.52052 259.758 8.38477 259.885 8.18904ZM264.01 8.29476C264.022 8.06154 264.127 7.7793 263.82 7.60695C263.719 7.67191 263.518 7.73859 263.512 7.81769C263.5 8.04695 263.387 8.34907 263.693 8.48195C263.765 8.51624 264.007 8.36984 264.01 8.29476ZM271.926 11.316C271.865 11.2578 271.805 11.1996 271.737 11.1337C271.627 11.1948 271.514 11.26 271.404 11.3251C271.465 11.3833 271.534 11.4926 271.577 11.484C271.699 11.4503 271.808 11.3733 271.926 11.316ZM282.881 10.2046C282.81 9.74376 282.425 9.86106 282.1 9.81933C281.467 9.73561 281.239 10.2451 280.488 10.9059C281.317 10.8914 281.724 10.8606 282.127 10.8852C282.629 10.9119 282.978 10.7874 282.881 10.2046ZM288.091 9.57259C288.101 9.46974 287.909 9.34276 287.813 9.22992C287.74 9.37336 287.68 9.52844 287.583 9.65255C286.888 10.5375 286.674 10.5136 286.01 9.56943C285.791 9.25731 285.486 9.00592 285.152 8.64842C284.737 9.75356 285.114 10.2959 285.929 10.8425C286.581 11.2813 287.371 10.6238 287.892 11.2861C288.392 10.7679 288.026 10.1424 288.091 9.57259ZM289.495 11.2463C289.189 11.1726 288.844 11.0918 288.404 11.0007C288.814 11.1831 289.171 11.2322 289.495 11.2463ZM289.914 8.12299C289.972 8.06274 290.081 7.98975 290.073 7.94645C290.043 7.82455 289.966 7.71531 289.905 7.60185C289.847 7.66211 289.733 7.73517 289.742 7.77451C289.772 7.89642 289.853 8.00953 289.914 8.12299ZM291.074 11.7045C291.082 11.7083 291.098 11.6961 290.963 11.6432C290.999 11.6663 291.035 11.6893 291.074 11.7045ZM291.237 11.5397C291.153 11.4424 291.091 11.2974 290.98 11.2519C290.872 11.2025 290.789 11.2039 290.75 11.2441C290.679 10.7517 290.89 10.2188 290.47 9.64955C290.057 10.1899 289.591 10.6404 290.632 11.2422C290.671 11.2455 290.711 11.2408 290.75 11.2441C290.739 11.2561 290.755 11.2914 290.752 11.3073C290.895 11.3837 291.042 11.4602 291.237 11.5397ZM294.997 9.25065C295.026 9.37255 295.107 9.48567 295.169 9.59913C295.227 9.53887 295.336 9.46588 295.327 9.42654C295.298 9.30463 295.221 9.19144 295.159 9.07798C295.101 9.13824 294.988 9.2113 294.997 9.25065ZM295.499 11.098C295.365 10.9108 295.276 10.7781 295.187 10.6454C295.1 10.8641 294.973 11.0756 294.953 11.3011C294.94 11.4237 295.112 11.5629 295.205 11.6916C295.304 11.4845 295.411 11.2773 295.499 11.098ZM300.063 11.2553C299.459 11.4949 298.709 10.5997 298.152 11.5256C298.823 11.6877 299.459 11.7082 300.063 11.2553ZM304.902 10.8865C304.738 10.7472 304.737 10.2457 304.425 10.6737C304.112 11.0978 303.696 11.03 303.293 11.0212C302.795 11.0102 302.746 11.3428 302.795 11.6855C302.859 12.1464 303.24 12.0608 303.568 12.0709C304.41 12.0996 304.664 11.5186 304.902 10.8865ZM305.937 9.9996C305.843 9.82747 305.737 9.62001 305.623 9.41664C305.538 9.55239 305.371 9.69354 305.385 9.81572C305.413 10.0403 305.551 10.2473 305.641 10.4629C305.726 10.3311 305.81 10.1953 305.937 9.9996ZM315.928 15.137C315.936 15.1684 315.913 15.1807 315.933 15.2198C315.986 15.3215 316.13 15.3901 316.241 15.4514C316.257 15.459 316.291 15.3715 315.928 15.137ZM316.404 15.2866C316.319 15.1854 316.254 15.0444 316.146 14.9989C316.035 14.9455 315.956 14.9469 315.913 14.9911C315.864 14.8577 315.837 14.712 315.756 14.5949C315.667 14.4583 315.51 14.4926 315.45 14.699C315.439 14.7466 315.527 14.828 315.83 14.9965C315.858 14.996 315.882 14.9956 315.909 14.9951C315.906 15.0031 315.918 15.0305 315.914 15.0424C316.046 15.1072 316.205 15.1874 316.404 15.2866ZM315.917 14.9871C315.917 14.991 315.917 14.991 315.917 14.9871V14.9871ZM181.412 8.79658C181.383 8.91163 181.415 8.9624 181.498 8.9728C181.513 8.89356 181.527 8.81827 181.561 8.73079C181.498 8.74769 181.463 8.77595 181.412 8.79658ZM100.895 5.85784C100.956 5.96341 101.021 6.08074 101.086 6.19019C101.145 6.12993 101.254 6.05694 101.245 6.0176C101.216 5.89569 101.139 5.7825 101.077 5.66904C101.019 5.72535 100.961 5.78561 100.895 5.85784ZM122.754 4.24413C123.101 5.16614 123.731 4.81551 124.263 4.50608C124.454 4.39611 124.933 4.18241 124.686 3.84708C124.56 3.67155 124.099 3.73883 123.791 3.70078C123.761 4.48325 123.147 4.15828 122.754 4.24413ZM108.354 5.53809C108.32 5.40046 108.297 5.24683 108.282 5.04174C108.228 5.11377 108.181 5.15013 108.13 5.1984C108.09 5.36892 108.026 5.55565 108.354 5.53809ZM226.1 4.62809C226.084 4.59679 226.056 4.56174 226.016 4.54268C225.837 4.46288 225.771 4.53511 225.793 4.669C225.872 4.67552 225.951 4.67414 226.03 4.68461C226.054 4.66445 226.073 4.64832 226.1 4.62809ZM34.2403 19.4733C34.2059 19.5371 34.1636 19.601 34.1253 19.6728C34.0067 19.892 34.1181 19.9375 34.3666 19.9173C34.3705 19.9173 34.3705 19.9173 34.3744 19.9172C34.3756 19.7553 34.3996 19.5455 34.4697 19.2679C34.3763 19.3445 34.3181 19.4048 34.2403 19.4733ZM67.0335 6.27118C66.9102 6.22199 66.8477 6.25863 66.8333 6.34181C66.9128 6.36807 66.9766 6.40645 67.0716 6.41664C67.0468 6.35388 67.0501 6.31828 67.0335 6.27118ZM106.225 3.49399C106.097 3.44093 106.031 3.46973 106.008 3.54121C106.088 3.57537 106.16 3.61361 106.251 3.63966C106.23 3.58473 106.234 3.54518 106.225 3.49399ZM265.09 9.08155C264.912 9.08465 264.739 9.08768 264.569 9.09065C264.627 9.23181 264.666 9.48387 264.75 9.49821C265.063 9.56383 265.11 9.33395 265.09 9.08155ZM173.938 10.2461C173.816 10.2759 173.707 10.3528 173.593 10.414C173.654 10.4722 173.71 10.5305 173.778 10.5964C173.888 10.5353 174.001 10.4701 174.114 10.4049C174.054 10.3467 173.981 10.2374 173.938 10.2461ZM122.374 12.3546C122.434 12.4168 122.507 12.5261 122.55 12.5174C122.672 12.4876 122.782 12.4107 122.895 12.3455C122.835 12.2873 122.779 12.233 122.706 12.1632C122.601 12.2282 122.483 12.2935 122.374 12.3546ZM193.617 9.81965C193.401 9.83529 193.193 9.95343 192.981 10.0322C193.073 10.2754 193.244 10.3712 193.524 10.3228C193.644 10.2062 194.053 10.5703 193.97 10.0821C193.948 9.96791 193.732 9.81371 193.617 9.81965ZM64.5148 17.6376C64.5037 17.6813 64.6195 17.7503 64.6797 17.8085C64.7409 17.6929 64.8021 17.5773 64.8594 17.4697C64.7911 17.3998 64.7269 17.3417 64.6706 17.2874C64.6134 17.4029 64.5403 17.5148 64.5148 17.6376ZM191.38 10.3642C191.123 10.349 190.895 10.4082 190.956 10.7152C190.969 10.794 191.219 10.8607 191.369 10.8818C191.619 10.9208 191.85 10.8457 191.794 10.5387C191.78 10.4599 191.523 10.4249 191.38 10.3642ZM187.728 10.6768C187.746 10.7594 187.94 10.8113 188 10.8458C188.264 10.5963 188.501 10.371 188.742 10.1457C188.523 10.0626 188.295 9.9007 188.09 9.92008C187.641 9.96742 187.671 10.35 187.728 10.6768ZM186.175 9.93771C186.151 10.337 185.714 10.4394 185.675 10.7165C185.647 10.9066 185.973 11.0075 186.229 10.9833C186.678 10.936 186.677 10.6201 186.659 10.2886C186.56 10.0613 186.182 9.85466 186.175 9.93771ZM63.3373 17.828C63.1756 17.8427 62.8865 17.7924 62.8716 17.844C62.7738 18.1261 62.9824 18.3121 63.2238 18.3394C63.4335 18.3634 63.6566 18.249 63.8768 18.1938C63.7687 17.8797 63.5896 17.7999 63.3373 17.828ZM8.11641 17.2319C8.50651 17.1817 8.98269 17.3116 8.97077 16.6286C9.02513 15.897 8.38404 15.8213 7.90377 15.6836C7.47504 15.5568 7.38275 15.9257 7.38916 16.2929C7.39777 16.7864 7.30865 17.3369 8.11641 17.2319ZM126.837 3.34746C127.015 3.56157 126.271 3.68514 126.565 4.04728C126.751 4.27704 127.211 4.62049 127.262 4.57617C128.222 3.7419 129.75 4.14966 130.576 3.06104C129.685 3.1161 129.01 2.72504 128.469 2.05126C128.3 2.05423 128.04 2.12984 127.972 2.0481C127.306 1.26592 126.708 2.0741 126.106 2.15176C125.786 2.18893 125.728 2.71914 125.997 2.97114C126.21 3.17279 126.66 3.1373 126.837 3.34746ZM130.576 3.06499C130.396 2.7048 130.137 2.36178 130.052 1.98415C129.872 1.18164 130.248 0.768308 130.982 0.980598C131.903 1.24492 132.794 1.63218 133.697 1.96002C133.811 2.40824 134.691 3.06819 133.365 3.11898C133.306 3.12002 133.256 3.38945 133.203 3.53649C133.242 3.49632 133.32 3.491 133.428 3.54046C133.536 3.59387 133.601 3.7349 133.686 3.83215C133.628 3.89241 133.543 4.00447 133.527 3.99685C133.411 3.93568 133.268 3.87104 133.215 3.76139C133.161 3.65569 133.16 3.57673 133.203 3.53649C132.681 3.51006 132.509 4.28711 131.897 4.08848C131.675 4.01338 131.272 4.20998 131.231 3.9145C131.158 3.39051 131.665 3.66602 131.896 3.53956C132.185 3.38444 132.121 3.10121 131.852 3.05457C131.436 2.99074 131.007 3.05748 130.576 3.06499ZM131.078 1.74507C130.963 1.68785 130.851 1.61082 130.728 1.58532C130.685 1.57818 130.615 1.69391 130.557 1.75417C130.673 1.81534 130.788 1.87651 130.896 1.93387C130.966 1.86156 131.02 1.80533 131.078 1.74507ZM37.274 20.6406C37.4097 20.7252 37.5508 20.8886 37.6731 20.8785C37.8976 20.847 38.1046 20.713 38.3202 20.6224C38.1844 20.5339 38.0526 20.4493 37.8569 20.3224C37.6808 20.4163 37.4773 20.5265 37.274 20.6406ZM56.6657 18.6553C56.7268 18.7609 56.792 18.8782 56.8571 18.9877C56.9153 18.9274 57.0285 18.8544 57.0199 18.8111C56.9901 18.6892 56.9092 18.58 56.848 18.4665C56.7898 18.5268 56.7355 18.583 56.6657 18.6553ZM6.80623 17.0613C6.74515 16.9557 6.67999 16.8423 6.61482 16.729C6.55663 16.7892 6.44338 16.8623 6.45203 16.9056C6.4818 17.0275 6.56269 17.1366 6.62391 17.2501C6.67815 17.1899 6.73641 17.1336 6.80623 17.0613ZM32.2804 20.9964C32.1689 20.943 32.09 20.9444 32.0473 20.9886C31.9976 20.8552 31.9674 20.7096 31.8903 20.5924C31.801 20.4558 31.6437 20.4901 31.5841 20.6965C31.5656 20.7679 31.7297 20.8954 31.8144 20.9966C31.8894 20.9953 31.9684 20.9939 32.0434 20.9926C32.0047 21.0367 32.0061 21.1157 32.0593 21.2214C32.1124 21.3231 32.2557 21.3917 32.3674 21.453C32.3873 21.4645 32.4722 21.3484 32.5304 21.2882C32.4496 21.1869 32.3879 21.0458 32.2804 20.9964ZM173.564 9.17448C173.496 9.15591 173.444 9.12522 173.365 9.11476C173.449 9.18437 173.513 9.19906 173.564 9.17448ZM202.207 9.12078C202.555 9.1542 202.893 9.08905 202.845 8.60018C202.494 8.60631 202.147 8.61238 201.799 8.61844C201.745 8.93532 201.942 9.09776 202.207 9.12078ZM224.501 10.726C224.814 10.7877 224.861 10.5578 224.841 10.3054C224.667 10.3084 224.489 10.3115 224.32 10.3145C224.377 10.4557 224.413 10.7078 224.501 10.726ZM244.969 12.5013C245.04 12.5238 245.168 12.3557 245.269 12.2749C245.268 12.196 245.266 12.121 245.265 12.038C245.128 12.0918 244.982 12.122 244.865 12.1951C244.728 12.2883 244.767 12.4456 244.969 12.5013ZM198.297 10.9188C198.164 11.008 198.198 11.1654 198.401 11.225C198.472 11.2435 198.6 11.0794 198.701 10.9947C198.7 10.9197 198.698 10.8407 198.697 10.7617C198.567 10.8114 198.414 10.8417 198.297 10.9188ZM138.271 11.7493C138.342 11.7678 138.474 11.6036 138.571 11.519C138.57 11.444 138.568 11.365 138.567 11.2861C138.433 11.3358 138.288 11.366 138.167 11.4431C138.03 11.5324 138.068 11.6897 138.271 11.7493ZM234.62 11.28C234.498 11.3098 234.389 11.3906 234.272 11.4519C234.332 11.5101 234.392 11.5644 234.461 11.6343C234.57 11.5731 234.684 11.5079 234.793 11.4428C234.737 11.3846 234.668 11.2673 234.62 11.28ZM194.928 9.57956C194.677 9.8762 194.499 10.3295 193.986 10.3187C193.987 10.4056 193.958 10.5206 193.998 10.5752C194.556 11.3356 195.073 10.1971 195.394 10.464C195.859 10.8468 196.591 10.6958 196.878 11.3108C197.056 11.1261 197.223 10.9218 197.421 10.7603C197.748 10.4979 197.395 10.3935 197.344 10.2009C197.159 9.52089 196.071 10.0967 196.06 9.23598C195.653 9.25492 195.261 9.19067 194.928 9.57956ZM199.895 9.06239C200.205 9.12808 200.256 8.89418 200.232 8.6458C200.058 8.64883 199.884 8.65187 199.711 8.6549C199.768 8.79606 199.804 9.04819 199.895 9.06239ZM202.526 9.75104C202.443 9.76828 202.38 10.0182 202.355 10.1687C202.32 10.4181 202.395 10.6498 202.702 10.5891C202.781 10.5759 202.82 10.3225 202.877 10.1793C202.892 9.92236 202.829 9.69441 202.526 9.75104ZM227.989 11.0363C228.05 11.0945 228.123 11.2038 228.166 11.1952C228.288 11.1654 228.397 11.0885 228.51 11.0272C228.45 10.9691 228.394 10.9108 228.326 10.8449C228.216 10.906 228.103 10.9712 227.989 11.0363ZM204.235 9.69357C204.137 9.75846 203.933 9.82521 203.927 9.90431C203.915 10.1336 203.806 10.4396 204.108 10.5686C204.18 10.5989 204.422 10.4525 204.428 10.3813C204.436 10.1521 204.546 9.86585 204.235 9.69357ZM198.685 10.5171C198.673 10.7661 198.751 10.899 198.933 10.7418C199.214 10.5039 199.421 10.1804 199.661 9.89583C199.526 9.83105 199.386 9.7703 199.247 9.70164C198.651 9.69231 198.701 10.0982 198.685 10.5171ZM210.725 10.0265C210.468 10.0113 210.24 10.0705 210.301 10.3775C210.314 10.4563 210.564 10.523 210.715 10.5441C210.964 10.5832 211.196 10.508 211.135 10.2011C211.126 10.1222 210.869 10.0872 210.725 10.0265ZM215.691 9.43436C215.585 9.45596 215.427 9.67198 215.436 9.78239C215.452 9.99932 215.57 10.2066 215.649 10.4185C215.892 10.3273 215.984 10.1559 215.94 9.87628C215.819 9.76386 216.183 9.34678 215.691 9.43436Z" fill="#E52D3C"/>
</svg>
