<svg width="28" height="28" viewBox="0 0 28 28" fill="none" xmlns="http://www.w3.org/2000/svg">
<circle cx="14" cy="14" r="13.5" stroke="#D4D4D8"/>
<path d="M21.5543 15.7176V20.9444H18.524V16.0675C18.524 14.8421 18.0855 14.0063 16.989 14.0063C16.1518 14.0063 15.6531 14.5701 15.4343 15.1148C15.3542 15.3096 15.3337 15.5809 15.3337 15.8536V20.9444H12.302C12.302 20.9444 12.3431 12.6852 12.302 11.8289H15.3337V13.1209L15.3138 13.1506H15.3337V13.1209C15.736 12.5011 16.455 11.6149 18.065 11.6149C20.059 11.6149 21.5543 12.9183 21.5543 15.7176ZM9.1315 7.43506C8.09521 7.43506 7.41663 8.11506 7.41663 9.00968C7.41663 9.88448 8.07538 10.585 9.09183 10.585H9.11167C10.1692 10.585 10.8258 9.88448 10.8258 9.00968C10.8074 8.11506 10.1692 7.43506 9.1315 7.43506ZM7.59654 20.9444H10.6268V11.8289H7.59654V20.9444Z" fill="#111827"/>
</svg>
