<svg width="28" height="28" viewBox="0 0 28 28" fill="none" xmlns="http://www.w3.org/2000/svg">
<path d="M14 15.166C15.933 15.166 17.5 13.599 17.5 11.666C17.5 9.73302 15.933 8.16602 14 8.16602C12.067 8.16602 10.5 9.73302 10.5 11.666C10.5 13.599 12.067 15.166 14 15.166Z" stroke="white" stroke-width="2" stroke-linecap="round" stroke-linejoin="round"/>
<path d="M14.0003 2.33301C11.525 2.33301 9.151 3.31634 7.40066 5.06668C5.65032 6.81702 4.66699 9.19099 4.66699 11.6663C4.66699 13.8737 5.13599 15.318 6.41699 16.9163L14.0003 25.6663L21.5837 16.9163C22.8647 15.318 23.3337 13.8737 23.3337 11.6663C23.3337 9.19099 22.3503 6.81702 20.6 5.06668C18.8496 3.31634 16.4757 2.33301 14.0003 2.33301Z" stroke="white" stroke-width="2" stroke-linecap="round" stroke-linejoin="round"/>
</svg>
