<svg width="60" height="60" viewBox="0 0 60 60" fill="none" xmlns="http://www.w3.org/2000/svg">
<rect width="60" height="60" rx="6" fill="#E52D3C"/>
<path d="M30 31.1665C31.933 31.1665 33.5 29.5995 33.5 27.6665C33.5 25.7335 31.933 24.1665 30 24.1665C28.067 24.1665 26.5 25.7335 26.5 27.6665C26.5 29.5995 28.067 31.1665 30 31.1665Z" stroke="white" stroke-width="2" stroke-linecap="round" stroke-linejoin="round"/>
<path d="M30.0003 18.3333C27.525 18.3333 25.151 19.3166 23.4007 21.0669C21.6503 22.8173 20.667 25.1912 20.667 27.6666C20.667 29.8739 21.136 31.3183 22.417 32.9166L30.0003 41.6666L37.5837 32.9166C38.8647 31.3183 39.3337 29.8739 39.3337 27.6666C39.3337 25.1912 38.3503 22.8173 36.6 21.0669C34.8496 19.3166 32.4757 18.3333 30.0003 18.3333Z" stroke="white" stroke-width="2" stroke-linecap="round" stroke-linejoin="round"/>
</svg>
