<svg width="60" height="60" viewBox="0 0 60 60" fill="none" xmlns="http://www.w3.org/2000/svg">
<rect width="60" height="60" rx="6" fill="#E52D3C"/>
<path d="M18.333 28.9302C18.333 28.1798 18.5139 27.4406 18.8603 26.775C19.2068 26.1095 19.7087 25.5373 20.3233 25.107L27.3233 20.207C28.1078 19.6578 29.0421 19.3633 29.9997 19.3633C30.9572 19.3633 31.8916 19.6578 32.676 20.207L39.676 25.107C40.2907 25.5373 40.7925 26.1095 41.139 26.775C41.4855 27.4406 41.6664 28.1798 41.6663 28.9302V38.1667C41.6663 38.7855 41.4205 39.379 40.9829 39.8166C40.5453 40.2542 39.9518 40.5 39.333 40.5H20.6663C20.0475 40.5 19.454 40.2542 19.0164 39.8166C18.5788 39.379 18.333 38.7855 18.333 38.1667V28.9302Z" stroke="white" stroke-width="2" stroke-linecap="round" stroke-linejoin="round"/>
<path d="M18.916 27.0833L27.0838 33.5011C27.9114 34.1632 28.9396 34.5239 29.9993 34.5239C31.0591 34.5239 32.0873 34.1632 32.9148 33.5011L41.0827 27.0833" stroke="white" stroke-width="2" stroke-linejoin="round"/>
</svg>
