<svg width="61" height="60" viewBox="0 0 61 60" fill="none" xmlns="http://www.w3.org/2000/svg">
<rect x="0.5" width="60" height="60" rx="6" fill="#E52D3C"/>
<path d="M28.8129 23.28L24.8661 18.7242C24.4111 18.1992 23.5769 18.2015 23.0484 18.7312L19.8028 21.9827C18.8368 22.9498 18.5603 24.386 19.1191 25.5375C22.4577 32.45 28.0325 38.0326 34.9403 41.3808C36.0906 41.9397 37.5256 41.6632 38.4916 40.696L41.7676 37.4142C42.2984 36.8833 42.2996 36.0445 41.7699 35.5895L37.1966 31.6637C36.7183 31.253 35.9751 31.3067 35.4956 31.7873L33.9043 33.381C33.8228 33.4664 33.7156 33.5227 33.599 33.5412C33.4825 33.5598 33.3631 33.5395 33.2591 33.4837C30.658 31.9858 28.5003 29.8253 27.0058 27.2222C26.9498 27.118 26.9295 26.9984 26.9481 26.8817C26.9666 26.7649 27.023 26.6575 27.1084 26.5758L28.6951 24.988C29.1758 24.505 29.2283 23.7595 28.8129 23.28Z" stroke="white" stroke-width="2" stroke-linecap="round" stroke-linejoin="round"/>
</svg>
