<svg width="34" height="34" viewBox="0 0 34 34" fill="none" xmlns="http://www.w3.org/2000/svg">
<path d="M10.3333 10.5001H23.6667M10.3333 17.1667H20.3333M18.6667 28.8334L17 30.5001L12 25.5001H7C5.67392 25.5001 4.40215 24.9733 3.46447 24.0356C2.52678 23.0979 2 21.8262 2 20.5001V7.16675C2 5.84067 2.52678 4.5689 3.46447 3.63121C4.40215 2.69353 5.67392 2.16675 7 2.16675H27C28.3261 2.16675 29.5979 2.69353 30.5355 3.63121C31.4732 4.5689 32 5.84067 32 7.16675V16.3334M28.6667 22.1667L25.3333 27.1667H32L28.6667 32.1667" stroke="#E52D3C" stroke-width="3.33333" stroke-linecap="round" stroke-linejoin="round"/>
</svg>
