<svg width="28" height="28" viewBox="0 0 28 28" fill="none" xmlns="http://www.w3.org/2000/svg">
<circle cx="14" cy="14" r="13.5" stroke="#D4D4D8"/>
<path d="M19.4938 9.47828C18.8444 8.82232 18.0709 8.30222 17.2184 7.94832C16.3659 7.59443 15.4514 7.41382 14.5284 7.41703C10.6609 7.41703 7.50882 10.5691 7.50882 14.4366C7.50882 15.6762 7.83465 16.8804 8.44382 17.9429L7.45215 21.5837L11.1709 20.6062C12.198 21.1658 13.3526 21.4633 14.5284 21.4633C18.3959 21.4633 21.548 18.3112 21.548 14.4437C21.548 12.5666 20.8184 10.8029 19.4938 9.47828ZM14.5284 20.2733C13.4801 20.2733 12.453 19.99 11.5534 19.4587L11.3409 19.3312L9.1309 19.912L9.71882 17.7587L9.57715 17.5391C8.99472 16.6091 8.68546 15.534 8.68465 14.4366C8.68465 11.2208 11.3055 8.59995 14.5213 8.59995C16.0796 8.59995 17.5459 9.20912 18.6438 10.3141C19.1874 10.8553 19.6183 11.4989 19.9113 12.2078C20.2043 12.9167 20.3538 13.6767 20.3509 14.4437C20.3651 17.6595 17.7442 20.2733 14.5284 20.2733ZM17.7301 15.91C17.553 15.825 16.6888 15.4 16.533 15.3362C16.3701 15.2795 16.2567 15.2512 16.1363 15.4212C16.0159 15.5983 15.683 15.995 15.5838 16.1083C15.4846 16.2287 15.3784 16.2429 15.2013 16.1508C15.0242 16.0658 14.4576 15.8745 13.7917 15.2795C13.2676 14.812 12.9205 14.2383 12.8142 14.0612C12.7151 13.8841 12.8001 13.792 12.8921 13.7C12.9701 13.622 13.0692 13.4945 13.1542 13.3954C13.2392 13.2962 13.2746 13.2183 13.3313 13.105C13.388 12.9845 13.3596 12.8854 13.3171 12.8004C13.2746 12.7154 12.9205 11.8512 12.7788 11.497C12.6371 11.157 12.4884 11.1995 12.3821 11.1925H12.0421C11.9217 11.1925 11.7376 11.235 11.5746 11.412C11.4188 11.5891 10.9655 12.0141 10.9655 12.8783C10.9655 13.7425 11.5959 14.5783 11.6809 14.6916C11.7659 14.812 12.9205 16.5829 14.6771 17.3408C15.0951 17.525 15.4209 17.6312 15.6759 17.7091C16.0938 17.8437 16.4763 17.8225 16.7809 17.78C17.1209 17.7304 17.8221 17.355 17.9638 16.9441C18.1126 16.5333 18.1126 16.1862 18.063 16.1083C18.0134 16.0304 17.9071 15.995 17.7301 15.91Z" fill="#111827"/>
</svg>
